<svg xmlns="http://www.w3.org/2000/svg" xmlns:xlink="http://www.w3.org/1999/xlink" width="2000" zoomAndPan="magnify" viewBox="0 0 1500 1499.999933" height="2000" preserveAspectRatio="xMidYMid meet" version="1.0"><defs><g/></defs><rect x="-150" width="1800" fill="#ffffff" y="-149.999993" height="1799.99992" fill-opacity="1"/><rect x="-150" width="1800" fill="#ffffff" y="-149.999993" height="1799.99992" fill-opacity="1"/><path fill="#00016d" d="M 492.554688 1157.769531 C 481.964844 1146.878906 463.4375 1128.941406 455.816406 1124.125 C 455.402344 1123.914062 454.785156 1123.746094 454.324219 1123.746094 C 454.449219 1128.902344 502.597656 1175.535156 507.988281 1175.714844 C 507.847656 1173.839844 499.519531 1164.925781 492.554688 1157.769531 " fill-opacity="1" fill-rule="nonzero"/><path fill="#00016d" d="M 555.085938 1202.929688 C 543.953125 1193.433594 523.78125 1177.886719 513.824219 1174.03125 C 513.089844 1173.835938 511.984375 1173.539062 511.605469 1173.878906 C 509.675781 1175.617188 522.328125 1187.53125 535.347656 1197.570312 C 552.039062 1210.425781 567.257812 1219.78125 569.992188 1218.855469 C 570.890625 1216.839844 561.039062 1208.019531 555.085938 1202.929688 " fill-opacity="1" fill-rule="nonzero"/><path fill="#00016d" d="M 346.976562 959.910156 C 346.730469 959.667969 346.296875 959.414062 345.953125 959.40625 C 345.859375 966.15625 378.023438 1027.660156 381.800781 1027.949219 C 381.847656 1025.222656 375.421875 1011.765625 371.589844 1003.980469 C 364.890625 990.382812 352.289062 966.398438 346.976562 959.910156 " fill-opacity="1" fill-rule="nonzero"/><path fill="#00016d" d="M 387.007812 1025.910156 C 386.339844 1025.589844 385.507812 1025.199219 385.09375 1025.625 C 380.914062 1029.878906 418.667969 1085.683594 427.617188 1088.480469 C 431.078125 1089.5625 427.3125 1080.292969 418.457031 1065.949219 C 410.179688 1052.539062 394.953125 1031.25 387.007812 1025.910156 " fill-opacity="1" fill-rule="nonzero"/><path fill="#00016d" d="M 474.921875 1121.265625 C 465.78125 1109.0625 448.15625 1089.929688 437.582031 1085.585938 C 436.703125 1085.363281 435.496094 1085.058594 434.816406 1085.535156 C 427.539062 1090.574219 470.097656 1140.375 483.261719 1142.226562 C 488.105469 1142.902344 484.671875 1134.28125 474.921875 1121.265625 " fill-opacity="1" fill-rule="nonzero"/><path fill="#00016d" d="M 318.613281 888.179688 C 319.027344 889.503906 319.679688 891.449219 320.492188 893.828125 C 319.851562 891.910156 319.191406 889.96875 318.601562 888.136719 L 318.613281 888.179688 " fill-opacity="1" fill-rule="nonzero"/><path fill="#00016d" d="M 365.453125 982.628906 C 370.511719 985.484375 369.625 974.125 363.394531 956.175781 C 358.015625 940.691406 346.828125 916.308594 338.804688 910.597656 C 338.332031 910.390625 337.652344 910.066406 337.144531 910.160156 C 328.78125 911.761719 353.917969 976.101562 365.453125 982.628906 " fill-opacity="1" fill-rule="nonzero"/><path fill="#00016d" d="M 412.449219 1045.773438 C 419.363281 1048.058594 418.867188 1037.183594 411.296875 1020.476562 C 404.746094 1006.027344 390.554688 983.535156 379.503906 978.761719 C 378.554688 978.546875 377.257812 978.242188 376.28125 978.851562 C 366.617188 984.914062 396.695312 1040.578125 412.449219 1045.773438 " fill-opacity="1" fill-rule="nonzero"/><path fill="#00016d" d="M 467.65625 1101.96875 C 477.726562 1105.285156 478.507812 1094.6875 469.390625 1078.355469 C 460.777344 1062.925781 443.777344 1044.1875 431.335938 1040.839844 C 430.128906 1040.703125 428.480469 1040.511719 427.21875 1041.179688 C 415.320312 1047.464844 447.070312 1095.183594 467.65625 1101.96875 " fill-opacity="1" fill-rule="nonzero"/><path fill="#00016d" d="M 310.496094 837.457031 C 310.230469 837.21875 309.835938 836.9375 309.496094 836.84375 C 304.453125 839.984375 324.25 912.136719 330.679688 914.042969 C 333.226562 912.453125 328.546875 892.148438 327.050781 885.96875 C 323.386719 870.800781 315.644531 844.21875 310.496094 837.457031 " fill-opacity="1" fill-rule="nonzero"/><path fill="#00016d" d="M 361.136719 931.832031 C 369.277344 936.335938 372.242188 923.34375 367.742188 902.871094 C 364.160156 886.582031 354.21875 861.421875 343.324219 856.484375 C 342.597656 856.328125 341.574219 856.121094 340.847656 856.28125 C 326.839844 859.351562 343.714844 922.195312 361.136719 931.832031 " fill-opacity="1" fill-rule="nonzero"/><path fill="#00016d" d="M 406.980469 996.53125 C 418.617188 1002.441406 423.195312 989.667969 416.78125 969.191406 C 411.925781 953.679688 398.722656 930.03125 384.574219 926.019531 C 383.625 925.921875 382.328125 925.796875 381.402344 926.015625 C 364.8125 929.949219 384.898438 985.304688 406.980469 996.53125 " fill-opacity="1" fill-rule="nonzero"/><path fill="#00016d" d="M 462.484375 1054.898438 C 477.796875 1061.953125 484.210938 1049.710938 475.945312 1029.222656 C 470.089844 1014.71875 454.359375 993.011719 437.710938 990.148438 C 436.191406 990.109375 434.109375 990.050781 432.261719 990.925781 C 416.730469 998.28125 438.195312 1043.714844 462.484375 1054.898438 " fill-opacity="1" fill-rule="nonzero"/><path fill="#00016d" d="M 325.433594 860.808594 C 331.191406 865.941406 333.820312 853.128906 331.289062 832.246094 C 329.316406 815.933594 323.097656 790.398438 315.457031 784.707031 C 314.949219 784.496094 314.210938 784.203125 313.671875 784.300781 C 303.296875 786.15625 313.078125 849.792969 325.433594 860.808594 " fill-opacity="1" fill-rule="nonzero"/><path fill="#00016d" d="M 384.765625 845.28125 C 382.972656 828.867188 374.296875 803.9375 360.605469 799.914062 C 359.628906 799.820312 358.292969 799.722656 357.34375 799.945312 C 340.425781 803.898438 347.539062 859.527344 366.855469 874.347656 C 378.683594 883.421875 387.386719 869.296875 384.765625 845.28125 " fill-opacity="1" fill-rule="nonzero"/><path fill="#00016d" d="M 433.984375 911.832031 C 430.710938 895.433594 418.644531 870.988281 402.074219 867.980469 C 400.882812 867.953125 399.265625 867.945312 398.113281 868.242188 C 378.875 873.191406 389.015625 924.40625 412.398438 940.351562 C 428.332031 951.226562 439.027344 937.09375 433.984375 911.832031 " fill-opacity="1" fill-rule="nonzero"/><path fill="#00016d" d="M 493.019531 973.703125 C 488.644531 958.066406 474 935.164062 455.152344 933.222656 C 453.816406 933.273438 452.003906 933.363281 450.714844 933.730469 C 429.617188 939.753906 443.449219 988.304688 470.195312 1002.082031 C 488.34375 1011.425781 499.644531 997.375 493.019531 973.703125 " fill-opacity="1" fill-rule="nonzero"/><path fill="#00016d" d="M 333.445312 805.320312 C 341.613281 812.347656 348.492188 798.839844 348.164062 776.402344 C 347.925781 760.078125 342.980469 734.925781 332.738281 730.125 C 331.992188 729.96875 330.953125 729.789062 330.207031 729.941406 C 315.597656 732.972656 318.140625 792.148438 333.445312 805.320312 " fill-opacity="1" fill-rule="nonzero"/><path fill="#00016d" d="M 413.023438 785.179688 C 412.699219 768.695312 405.152344 744.160156 389.398438 741.207031 C 388.804688 741.195312 388.003906 741.128906 387.410156 741.175781 C 366.484375 742.667969 364.140625 792.867188 384.066406 812.789062 C 398.40625 827.132812 413.5625 812.683594 413.023438 785.179688 " fill-opacity="1" fill-rule="nonzero"/><path fill="#00016d" d="M 461.128906 849.78125 C 459.359375 833.234375 448.605469 809.03125 430.242188 807.054688 C 429.558594 807.082031 428.644531 807.066406 427.960938 807.144531 C 404.296875 809.972656 406.195312 860.5625 430.664062 879.324219 C 448.117188 892.699219 464.0625 877.242188 461.128906 849.78125 " fill-opacity="1" fill-rule="nonzero"/><path fill="#00016d" d="M 519.390625 911.960938 C 516.335938 895.445312 502.78125 871.742188 482.191406 870.75 C 481.429688 870.820312 480.40625 870.851562 479.652344 870.972656 C 455.34375 874.8125 458.882812 921.789062 484.914062 940.78125 C 505.980469 956.15625 524.664062 940.523438 519.390625 911.960938 " fill-opacity="1" fill-rule="nonzero"/><path fill="#00016d" d="M 351.601562 746.195312 C 361.996094 758.203125 374.566406 744.308594 376.507812 718.65625 C 377.742188 702.410156 373.792969 677.804688 361.160156 673.960938 C 360.675781 673.921875 360.039062 673.808594 359.554688 673.820312 C 342.007812 674.121094 336.058594 728.230469 351.601562 746.195312 " fill-opacity="1" fill-rule="nonzero"/><path fill="#00016d" d="M 412.679688 751.648438 C 427.464844 768.386719 447.378906 753.277344 448.800781 724.246094 C 449.605469 707.832031 443.0625 683.847656 426.003906 681.902344 C 400.433594 683 395.09375 731.734375 412.679688 751.648438 " fill-opacity="1" fill-rule="nonzero"/><path fill="#00016d" d="M 495.867188 786.628906 C 495.246094 770.039062 485.535156 746.21875 465.871094 745.191406 C 437.136719 747.691406 435.949219 797.054688 457.773438 816.152344 C 475.945312 832.054688 496.949219 815.773438 495.867188 786.628906 " fill-opacity="1" fill-rule="nonzero"/><path fill="#00016d" d="M 510.566406 876.257812 C 532.328125 894.992188 556.519531 878.335938 553 847.039062 C 551.128906 830.386719 538.644531 806.894531 516.746094 806.816406 C 486.953125 810.496094 487.148438 856.097656 510.566406 876.257812 " fill-opacity="1" fill-rule="nonzero"/><path fill="#00016d" d="M 413.214844 660.449219 C 415.566406 644.355469 412.476562 620.429688 398.261719 617.632812 C 375.621094 617.339844 366.351562 669.550781 380.9375 687.691406 C 392.355469 701.898438 409.25 687.640625 413.214844 660.449219 " fill-opacity="1" fill-rule="nonzero"/><path fill="#00016d" d="M 597.789062 1153.621094 C 615.636719 1158.136719 622.710938 1146.886719 612.933594 1129.535156 C 606.015625 1117.257812 587.464844 1099.664062 567.875 1098.976562 C 565.210938 1099.175781 562.453125 1099.378906 559.769531 1101.253906 C 544.625 1111.796875 569.851562 1146.550781 597.789062 1153.621094 " fill-opacity="1" fill-rule="nonzero"/><path fill="#00016d" d="M 630.371094 1078.769531 C 624.828125 1065.21875 607.207031 1046.191406 585.402344 1046.328125 C 583.382812 1046.566406 580.617188 1046.882812 578.019531 1048.117188 C 558.117188 1057.527344 573.789062 1093.707031 602.679688 1105.046875 C 624.9375 1113.785156 639.171875 1100.277344 630.371094 1078.769531 " fill-opacity="1" fill-rule="nonzero"/><path fill="#00016d" d="M 656.722656 1021.363281 C 652.359375 1006.597656 635.5625 986.242188 611.878906 987.222656 C 611.011719 987.359375 609.847656 987.480469 608.988281 987.664062 C 582.921875 993.171875 587.714844 1031.839844 616.53125 1048.507812 C 642.074219 1063.273438 664.609375 1048.050781 656.722656 1021.363281 " fill-opacity="1" fill-rule="nonzero"/><path fill="#00016d" d="M 645.753906 921.964844 C 644.828125 922.132812 643.582031 922.304688 642.664062 922.523438 C 614.511719 929.324219 616.109375 971.257812 645.179688 988.507812 C 670.753906 1003.691406 696.539062 986.082031 690.414062 957.632812 C 686.988281 941.742188 670.871094 920.167969 645.753906 921.964844 " fill-opacity="1" fill-rule="nonzero"/><path fill="#00016d" d="M 602.085938 1194.527344 C 614.308594 1196.121094 615.820312 1186.882812 605.515625 1173.492188 C 597.085938 1162.53125 577.53125 1146.433594 560.453125 1144.949219 C 558.171875 1145.003906 555.808594 1145.066406 553.855469 1146.574219 C 541.777344 1155.90625 577.386719 1191.316406 602.085938 1194.527344 " fill-opacity="1" fill-rule="nonzero"/><path fill="#00016d" d="M 615.4375 1228.074219 C 622.253906 1227.914062 619.617188 1220.898438 608.882812 1210.625 C 599.511719 1201.652344 579.019531 1186.5625 563.9375 1184.269531 C 562.0625 1184.1875 560.125 1184.09375 558.921875 1185.25 C 550.980469 1192.875 597.984375 1228.5 615.4375 1228.074219 " fill-opacity="1" fill-rule="nonzero"/><path fill="#00016d" d="M 532.984375 1057.585938 C 555.996094 1068.890625 570.992188 1053.976562 562.164062 1028.574219 C 556.632812 1012.675781 538.765625 989.867188 516.347656 988.941406 C 514.757812 989.074219 512.617188 989.269531 511.089844 989.730469 C 487.464844 996.804688 502.199219 1042.464844 532.984375 1057.585938 " fill-opacity="1" fill-rule="nonzero"/><path fill="#00016d" d="M 528.839844 1109.304688 C 546.953125 1115.472656 554.460938 1102.511719 544.585938 1082.113281 C 537.523438 1067.519531 518.570312 1046.117188 498.539062 1044.25 C 496.707031 1044.300781 494.203125 1044.378906 491.988281 1045.414062 C 472.953125 1054.289062 498.78125 1099.066406 528.839844 1109.304688 " fill-opacity="1" fill-rule="nonzero"/><path fill="#00016d" d="M 326.917969 706.980469 C 328.390625 689.527344 327.0625 662.324219 319.492188 656.5 C 318.917969 656.28125 318.09375 656.015625 317.492188 656.117188 C 304.671875 658.332031 301.019531 726.4375 313.097656 737.996094 C 318.816406 743.464844 325.015625 729.550781 326.917969 706.980469 " fill-opacity="1" fill-rule="nonzero"/><path fill="#00016d" d="M 301.484375 708.707031 C 301.160156 708.449219 300.664062 708.042969 300.253906 708.089844 C 292.550781 708.9375 296.039062 783.035156 304.179688 791.550781 C 307.625 795.148438 309.898438 781.949219 309.46875 760.839844 C 309.113281 743.257812 306.394531 715.460938 301.484375 708.707031 " fill-opacity="1" fill-rule="nonzero"/><path fill="#00016d" d="M 586.046875 968.5625 C 582.164062 952.777344 566.609375 930.566406 544.164062 930.589844 C 542.539062 930.785156 540.355469 931.082031 538.800781 931.59375 C 515.117188 939.410156 522.253906 981.339844 550.03125 997.574219 C 573.105469 1011.066406 592.625 995.335938 586.046875 968.5625 " fill-opacity="1" fill-rule="nonzero"/><path fill="#00016d" d="M 575.792969 933.308594 C 599.972656 950.515625 625.117188 933.007812 619.894531 902.597656 C 617.035156 885.980469 602.320312 862.972656 578.539062 863.859375 C 577.65625 863.996094 576.472656 864.128906 575.597656 864.320312 C 548.625 870.21875 548.746094 914.0625 575.792969 933.308594 " fill-opacity="1" fill-rule="nonzero"/><path fill="#00016d" d="M 532.296875 1151.226562 C 543.898438 1153.671875 545.191406 1143.792969 535.238281 1128.742188 C 527.175781 1116.546875 508.65625 1098.222656 492.726562 1095.664062 C 490.613281 1095.585938 488.429688 1095.511719 486.621094 1096.996094 C 475.757812 1105.960938 509.90625 1146.507812 532.296875 1151.226562 " fill-opacity="1" fill-rule="nonzero"/><path fill="#00016d" d="M 546.335938 1188.335938 C 552.390625 1188.582031 549.433594 1180.636719 539.144531 1169.019531 C 529.445312 1158.070312 509.972656 1141.175781 497.035156 1137.882812 C 495.332031 1137.671875 493.722656 1137.464844 492.800781 1138.628906 C 486.652344 1146.382812 531.179688 1187.726562 546.335938 1188.335938 " fill-opacity="1" fill-rule="nonzero"/><path fill="#00016d" d="M 299.800781 638.765625 C 299.734375 638.605469 299.644531 638.394531 299.578125 638.238281 C 299.421875 638.226562 299.210938 638.214844 299.054688 638.203125 C 295.035156 644.972656 291.15625 706.765625 294.285156 714.207031 C 294.445312 714.210938 294.652344 714.222656 294.808594 714.222656 C 296.570312 711 298.042969 695.605469 298.769531 686.71875 C 299.984375 671.785156 301.339844 645.558594 299.800781 638.765625 " fill-opacity="1" fill-rule="nonzero"/><path fill="#00016d" d="M 316.0625 635.542969 C 319.03125 619.824219 321.511719 595.105469 317.730469 589.363281 C 317.429688 589.136719 316.945312 588.820312 316.570312 588.863281 C 308.265625 589.789062 297.644531 655.847656 304.601562 663.269531 C 307.554688 666.417969 312.484375 654.5 316.0625 635.542969 " fill-opacity="1" fill-rule="nonzero"/><path fill="#00016d" d="M 344.125 583.3125 C 348.542969 567.886719 352.125 543.96875 346.273438 539.117188 C 346.019531 539.027344 345.695312 538.859375 345.429688 538.8125 C 334.011719 536.933594 317.09375 596.144531 325.082031 610 C 329.21875 617.167969 337.9375 604.945312 344.125 583.3125 " fill-opacity="1" fill-rule="nonzero"/><path fill="#00016d" d="M 355.945312 556.554688 C 360.859375 565.519531 373.011719 553.027344 381.445312 530.335938 C 387.03125 515.292969 391.496094 492.34375 383.910156 488.421875 C 369.71875 485.902344 347.242188 540.660156 355.945312 556.554688 " fill-opacity="1" fill-rule="nonzero"/><path fill="#00016d" d="M 353.910156 650.070312 C 356.746094 634.167969 356.625 609.773438 347.476562 605.324219 C 347.109375 605.257812 346.628906 605.113281 346.257812 605.09375 C 331.46875 604.308594 320.601562 661.039062 332.421875 677.359375 C 339.273438 686.824219 349.714844 673.5625 353.910156 650.070312 " fill-opacity="1" fill-rule="nonzero"/><path fill="#00016d" d="M 362.910156 620.589844 C 370.765625 632.144531 385.253906 618.582031 391.617188 593.71875 C 395.621094 578.09375 396.289062 554.519531 385.25 551.039062 C 365.546875 549.46875 351.792969 604.230469 362.910156 620.589844 " fill-opacity="1" fill-rule="nonzero"/><path fill="#00016d" d="M 493.070312 658.195312 C 494.722656 642.011719 488.996094 618.78125 471.089844 617.804688 C 445.933594 620.101562 436.164062 664.984375 451.164062 684.984375 C 465.667969 704.316406 489.949219 688.792969 493.070312 658.195312 " fill-opacity="1" fill-rule="nonzero"/><path fill="#00016d" d="M 539.085938 717.859375 C 539.328125 701.398438 530.4375 678.175781 509.917969 678.078125 C 481.136719 681.71875 475.199219 726.960938 494.71875 746.964844 C 512.925781 765.621094 538.636719 748.753906 539.085938 717.859375 " fill-opacity="1" fill-rule="nonzero"/><path fill="#00016d" d="M 548.75 807.25 C 570.109375 825.0625 596.996094 806.984375 595.152344 776.050781 C 594.164062 759.410156 582.515625 736.339844 559.730469 737.15625 C 528.355469 742.078125 525.59375 787.9375 548.75 807.25 " fill-opacity="1" fill-rule="nonzero"/><path fill="#00016d" d="M 619.042969 794.636719 C 587.804688 800.402344 585.621094 843.273438 608.679688 863.125 C 632.5625 883.683594 663.503906 865.023438 659.617188 832.410156 C 657.625 815.691406 643.71875 792.917969 619.042969 794.636719 " fill-opacity="1" fill-rule="nonzero"/><path fill="#00016d" d="M 444.355469 557.011719 C 421.191406 558.152344 408.054688 605.683594 420.785156 624.257812 C 431.980469 640.597656 452.785156 625.890625 458.515625 597.589844 C 461.707031 581.808594 459.429688 558.792969 444.355469 557.011719 " fill-opacity="1" fill-rule="nonzero"/><path fill="#00016d" d="M 402.101562 562.796875 C 410.203125 576.25 428.113281 562.554688 436.320312 536.621094 C 441.148438 521.386719 442.5 498.8125 430.398438 496.335938 C 409.574219 496.265625 391.839844 545.761719 402.101562 562.796875 " fill-opacity="1" fill-rule="nonzero"/><path fill="#00016d" d="M 462.511719 876.375 L 462.253906 876.804688 L 462.320312 876.847656 Z M 462.511719 876.375 " fill-opacity="1" fill-rule="nonzero"/><path fill="#00016d" d="M 477.886719 939.140625 L 478.355469 939.558594 L 477.945312 939.140625 C 477.925781 939.140625 477.90625 939.140625 477.886719 939.140625 " fill-opacity="1" fill-rule="nonzero"/><path fill="#00016d" d="M 672.648438 1144.480469 C 695.625 1153.5 711.523438 1141.101562 702.492188 1121.214844 C 697.160156 1109.480469 680.09375 1093.378906 658.847656 1094.324219 C 656.632812 1094.660156 653.875 1095.074219 651.246094 1096.410156 C 633.5 1105.390625 646.304688 1134.144531 672.648438 1144.480469 " fill-opacity="1" fill-rule="nonzero"/><path fill="#00016d" d="M 669.21875 1190.8125 C 686.695312 1194.195312 693.871094 1183.722656 684.277344 1168.835938 C 678.082031 1159.230469 660.882812 1144.082031 641.089844 1144.304688 C 639.78125 1144.386719 635.792969 1144.660156 632.703125 1146.894531 C 618.769531 1156.941406 642.65625 1185.679688 669.21875 1190.8125 " fill-opacity="1" fill-rule="nonzero"/><path fill="#00016d" d="M 582.828125 651.167969 C 583.671875 635.742188 575.929688 614.273438 556.054688 614.855469 C 531.816406 617.402344 519.917969 656.496094 537.050781 677.292969 C 553.371094 697.09375 581.175781 681.222656 582.828125 651.167969 " fill-opacity="1" fill-rule="nonzero"/><path fill="#00016d" d="M 517.96875 557.839844 C 494.035156 560.980469 482.902344 601.566406 496.003906 619.617188 C 508.910156 637.390625 533.09375 623.433594 537.742188 595.53125 C 540.304688 580.125 535.871094 558.246094 517.96875 557.839844 " fill-opacity="1" fill-rule="nonzero"/><path fill="#00016d" d="M 310.027344 588.777344 C 312.738281 587.324219 317.53125 572.410156 320.144531 563.652344 C 321.179688 560.1875 330.207031 529.597656 328.867188 522.148438 C 328.753906 521.929688 328.523438 521.636719 328.292969 521.546875 C 328.167969 521.597656 327.988281 521.652344 327.871094 521.730469 C 321.6875 525.894531 305.34375 587.304688 310.027344 588.777344 " fill-opacity="1" fill-rule="nonzero"/><path fill="#00016d" d="M 728.285156 1065.804688 C 724.027344 1053.777344 709.207031 1036.542969 685.820312 1038.355469 C 684.058594 1038.675781 681.699219 1039.109375 680.011719 1039.710938 C 658.171875 1047.488281 664.550781 1079.058594 690.507812 1091.679688 C 712.890625 1102.554688 737.050781 1090.574219 728.285156 1065.804688 " fill-opacity="1" fill-rule="nonzero"/><path fill="#00016d" d="M 633.863281 1252.914062 C 637.101562 1252.386719 629.832031 1246.195312 621.953125 1240.578125 C 613.003906 1234.214844 592.964844 1221.390625 581.136719 1218.484375 C 579.722656 1218.296875 578.5 1218.121094 578.1875 1218.910156 C 575.972656 1224.507812 624.886719 1254.375 633.863281 1252.914062 " fill-opacity="1" fill-rule="nonzero"/><path fill="#00016d" d="M 671.859375 1227.933594 C 684.144531 1228.789062 685.8125 1221.21875 675.824219 1209.929688 C 669.273438 1202.535156 652.007812 1188.390625 633.53125 1187.828125 C 631.058594 1188 628.722656 1188.160156 626.78125 1189.617188 C 615.5 1198.046875 648.78125 1226.335938 671.859375 1227.933594 " fill-opacity="1" fill-rule="nonzero"/><path fill="#00016d" d="M 467.003906 561.4375 C 475.972656 574.65625 496.914062 564.542969 503.835938 537.941406 C 506.375 528.1875 509.171875 502.609375 491.882812 501.378906 C 470.027344 503.433594 456 545.230469 467.003906 561.4375 " fill-opacity="1" fill-rule="nonzero"/><path fill="#00016d" d="M 348.207031 515.285156 C 352.8125 503.96875 360.710938 481.140625 357.644531 475.777344 C 357.488281 475.671875 357.304688 475.488281 357.128906 475.429688 C 350.082031 473.007812 327.742188 528.9375 331.96875 538.425781 C 334.035156 543.058594 340.863281 533.332031 348.207031 515.285156 " fill-opacity="1" fill-rule="nonzero"/><path fill="#00016d" d="M 605.1875 671.914062 C 575.648438 677.355469 572.941406 717.035156 589.328125 734.117188 C 606.910156 752.445312 637.984375 739.550781 637.191406 706.988281 C 636.671875 685.609375 622.316406 669.875 605.1875 671.914062 " fill-opacity="1" fill-rule="nonzero"/><path fill="#00016d" d="M 727.117188 886.597656 C 724.574219 872.035156 711.714844 851.261719 686.675781 853.742188 C 657.035156 858.421875 656.554688 899.425781 679.507812 916.480469 C 701.472656 932.800781 732.628906 918.222656 727.117188 886.597656 " fill-opacity="1" fill-rule="nonzero"/><path fill="#00016d" d="M 716.960938 1031.238281 C 741.160156 1046.394531 767.921875 1030.722656 761.703125 1005.03125 C 757.335938 986.984375 737.875 973.472656 720.054688 976.109375 C 719.148438 976.300781 717.925781 976.496094 717.03125 976.742188 C 692.484375 983.285156 692.441406 1015.882812 716.960938 1031.238281 " fill-opacity="1" fill-rule="nonzero"/><path fill="#00016d" d="M 428.164062 439.949219 C 412.730469 438.976562 391.664062 484.917969 397.523438 498.386719 C 401.765625 508.140625 415.730469 497.273438 425.195312 476.851562 C 430.988281 464.34375 436.914062 443.277344 428.164062 439.949219 " fill-opacity="1" fill-rule="nonzero"/><path fill="#00016d" d="M 683.628906 1257.71875 C 689.644531 1257.210938 687.609375 1251.625 678.683594 1244.136719 C 666.539062 1233.953125 646.972656 1224.652344 636.808594 1224.226562 C 634.949219 1224.265625 633.1875 1224.300781 632.039062 1225.375 C 624.410156 1232.558594 666.839844 1259.15625 683.628906 1257.71875 " fill-opacity="1" fill-rule="nonzero"/><path fill="#00016d" d="M 478.363281 445.273438 C 461.042969 446.402344 441.566406 484.285156 449.417969 501.570312 C 455.683594 515.355469 474.609375 502.542969 483.175781 478.726562 C 487.832031 465.769531 489.417969 446.828125 478.363281 445.273438 " fill-opacity="1" fill-rule="nonzero"/><path fill="#00016d" d="M 364.410156 488.09375 C 366.691406 494.148438 376.746094 483.402344 385.9375 465.082031 C 392.074219 452.859375 399.292969 433.039062 395.308594 429.335938 C 395.285156 429.332031 395.257812 429.308594 395.234375 429.300781 C 385.964844 425.703125 359.75 475.707031 364.410156 488.09375 " fill-opacity="1" fill-rule="nonzero"/><path fill="#00016d" d="M 663.8125 727.871094 C 637.257812 732.039062 629.660156 770.820312 651.679688 789.804688 C 673.265625 808.425781 702.550781 790.824219 699.878906 760.832031 C 698.546875 745.851562 686.472656 725.722656 663.8125 727.871094 " fill-opacity="1" fill-rule="nonzero"/><path fill="#00016d" d="M 774.046875 1159.8125 C 768.488281 1146.40625 748.789062 1135.476562 733.515625 1137.328125 C 732.113281 1137.578125 730.238281 1137.929688 728.898438 1138.402344 C 711.953125 1144.441406 716.191406 1167.285156 742.140625 1178.28125 C 765.3125 1188.101562 780.695312 1175.847656 774.046875 1159.8125 " fill-opacity="1" fill-rule="nonzero"/><path fill="#00016d" d="M 755.398438 1203.785156 C 749.628906 1194.960938 732.46875 1183.171875 715.269531 1183.964844 C 712.175781 1184.285156 709.636719 1185.144531 707.726562 1186.53125 C 695.585938 1195.34375 714.1875 1216.820312 738.34375 1221.890625 C 756.898438 1225.773438 762.847656 1215.160156 755.398438 1203.785156 " fill-opacity="1" fill-rule="nonzero"/><path fill="#00016d" d="M 603.390625 552.121094 C 583.375 554.757812 568.898438 588.742188 584.800781 608.238281 C 599.480469 626.242188 625.085938 612.109375 627.617188 584.617188 C 628.929688 570.347656 621.242188 551.113281 603.390625 552.121094 " fill-opacity="1" fill-rule="nonzero"/><path fill="#00016d" d="M 584.015625 530.640625 C 587.144531 512.765625 578.609375 497.433594 566.121094 498.46875 C 545.1875 501.980469 532.003906 536.867188 545.0625 554.179688 C 557.546875 570.722656 579.964844 553.828125 584.015625 530.640625 " fill-opacity="1" fill-rule="nonzero"/><path fill="#00016d" d="M 364.652344 450.414062 C 367.242188 445.605469 380.152344 421.339844 379.691406 415.285156 C 379.621094 415.179688 379.570312 415.003906 379.464844 414.929688 C 375.417969 411.933594 348.269531 463.445312 350.417969 470.046875 C 351.265625 472.644531 356.71875 465.121094 364.652344 450.414062 " fill-opacity="1" fill-rule="nonzero"/><path fill="#00016d" d="M 516.171875 498.246094 C 524.066406 511.996094 545.222656 501.53125 551.753906 475.542969 C 554.722656 463.742188 554.269531 446.09375 540.855469 445.84375 C 521.410156 448.457031 507.609375 483.347656 516.171875 498.246094 " fill-opacity="1" fill-rule="nonzero"/><path fill="#00016d" d="M 651.746094 606.105469 C 628.335938 609.773438 618.9375 646.15625 636.957031 663.359375 C 654.441406 680.054688 681.585938 663.472656 680.960938 636.472656 C 680.664062 623.683594 672.472656 604.132812 651.746094 606.105469 " fill-opacity="1" fill-rule="nonzero"/><path fill="#00016d" d="M 799.621094 1106.226562 C 794.042969 1091.839844 776.679688 1082.027344 760.910156 1084.359375 C 759.359375 1084.671875 757.28125 1085.097656 755.792969 1085.640625 C 736.015625 1092.738281 740.367188 1118.46875 763.183594 1129.332031 C 786.066406 1140.230469 807.519531 1126.625 799.621094 1106.226562 " fill-opacity="1" fill-rule="nonzero"/><path fill="#00016d" d="M 746.300781 1241 C 736.570312 1230.96875 719.140625 1223.320312 707.445312 1223.953125 C 705.5 1224.164062 702.238281 1224.507812 700.410156 1226.433594 C 692.605469 1234.648438 721.628906 1255.210938 741.8125 1255.773438 C 753.023438 1256.085938 754.910156 1249.871094 746.300781 1241 " fill-opacity="1" fill-rule="nonzero"/><path fill="#00016d" d="M 477.144531 391.605469 C 464.292969 390.417969 440.382812 428.628906 445.167969 442.714844 C 448.519531 452.582031 463.335938 444.542969 474.480469 422.484375 C 479.429688 412.679688 486.351562 393.621094 477.144531 391.605469 " fill-opacity="1" fill-rule="nonzero"/><path fill="#00016d" d="M 702.183594 1280.253906 C 705.03125 1279.679688 700.746094 1275.890625 690.730469 1270.132812 C 688.261719 1268.71875 666.230469 1256.234375 652.304688 1254.246094 C 650.84375 1254.164062 649.460938 1254.085938 648.988281 1254.789062 C 645.820312 1259.507812 693.050781 1282.121094 702.183594 1280.253906 " fill-opacity="1" fill-rule="nonzero"/><path fill="#00016d" d="M 833.519531 1048.730469 C 830.746094 1037.484375 818.296875 1021.851562 795.355469 1024.863281 C 795.351562 1024.863281 795.351562 1024.863281 795.347656 1024.863281 C 795.34375 1024.871094 795.339844 1024.871094 795.335938 1024.871094 C 795.335938 1024.871094 795.332031 1024.871094 795.328125 1024.871094 C 795.324219 1024.871094 795.324219 1024.871094 795.320312 1024.871094 C 795.316406 1024.871094 795.3125 1024.871094 795.3125 1024.871094 C 795.308594 1024.871094 795.304688 1024.878906 795.300781 1024.878906 C 795.296875 1024.878906 795.292969 1024.878906 795.289062 1024.878906 C 795.289062 1024.878906 795.285156 1024.878906 795.28125 1024.878906 C 791.769531 1025.6875 784.46875 1027.371094 779.519531 1034.066406 C 767.695312 1050.046875 783.691406 1080.652344 814.566406 1076.570312 C 814.570312 1076.570312 814.574219 1076.570312 814.578125 1076.570312 C 814.578125 1076.558594 814.585938 1076.558594 814.585938 1076.558594 C 814.589844 1076.558594 814.589844 1076.558594 814.59375 1076.558594 C 814.597656 1076.558594 814.601562 1076.558594 814.601562 1076.558594 C 814.609375 1076.558594 814.613281 1076.558594 814.613281 1076.558594 C 814.617188 1076.558594 814.617188 1076.558594 814.621094 1076.550781 C 814.625 1076.550781 814.625 1076.550781 814.628906 1076.550781 C 814.632812 1076.550781 814.636719 1076.550781 814.640625 1076.550781 C 838.308594 1071.105469 834.078125 1051.003906 833.519531 1048.730469 " fill-opacity="1" fill-rule="nonzero"/><path fill="#00016d" d="M 799.550781 938.1875 C 797.296875 925.285156 784.53125 905.933594 759.859375 908.933594 C 731.121094 915.660156 731.269531 950.828125 753.703125 965.570312 C 776.6875 980.664062 804.109375 964.289062 799.550781 938.1875 " fill-opacity="1" fill-rule="nonzero"/><path fill="#00016d" d="M 730.542969 783.324219 C 704 788.222656 698.40625 826.355469 721.730469 843.324219 C 744.085938 859.589844 772.195312 841.261719 768.003906 813.164062 C 765.554688 796.742188 751.59375 780.699219 730.542969 783.324219 " fill-opacity="1" fill-rule="nonzero"/><path fill="#00016d" d="M 336.296875 495.019531 C 340.175781 485.726562 349.320312 463.515625 350.464844 457.984375 C 350.488281 457.847656 350.484375 457.65625 350.492188 457.515625 C 350.394531 457.515625 350.265625 457.515625 350.171875 457.515625 C 346.34375 462.242188 324.914062 512.945312 326.703125 516.078125 C 327.269531 515.285156 328.605469 513.433594 336.296875 495.019531 " fill-opacity="1" fill-rule="nonzero"/><path fill="#00016d" d="M 646.363281 1263.726562 C 621.078125 1250.613281 613.859375 1247.449219 610.128906 1246.09375 C 610.128906 1246.09375 610.125 1246.09375 610.125 1246.085938 C 610.121094 1246.085938 610.121094 1246.085938 610.117188 1246.085938 C 610.117188 1246.085938 610.117188 1246.085938 610.113281 1246.085938 C 610.113281 1246.085938 610.109375 1246.085938 610.109375 1246.085938 C 610.105469 1246.085938 610.105469 1246.085938 610.105469 1246.085938 C 610.101562 1246.085938 610.101562 1246.078125 610.097656 1246.078125 C 610.09375 1246.078125 610.09375 1246.078125 610.09375 1246.078125 C 610.089844 1246.078125 610.089844 1246.078125 610.085938 1246.078125 C 609.726562 1245.972656 609.242188 1245.835938 608.871094 1245.785156 C 608.847656 1245.867188 608.820312 1245.988281 608.796875 1246.074219 C 614.054688 1251.042969 658.246094 1272.402344 663.46875 1273.203125 C 663.265625 1272.769531 663.109375 1272.417969 646.363281 1263.726562 " fill-opacity="1" fill-rule="nonzero"/><path fill="#00016d" d="M 405.769531 436.253906 C 407.632812 442.820312 417.933594 436.34375 429.75 416.539062 C 430.429688 415.398438 446.316406 388.585938 439.453125 384.355469 C 427.648438 382.496094 402.785156 425.703125 405.769531 436.253906 " fill-opacity="1" fill-rule="nonzero"/><path fill="#00016d" d="M 750.929688 1281.6875 C 750.929688 1281.6875 750.933594 1281.6875 750.933594 1281.6875 C 750.9375 1281.6875 750.9375 1281.6875 750.941406 1281.6875 C 750.945312 1281.6875 750.949219 1281.6875 750.949219 1281.6875 C 750.953125 1281.6875 750.953125 1281.6875 750.953125 1281.6875 C 750.957031 1281.6875 750.957031 1281.6875 750.957031 1281.6875 C 750.960938 1281.6875 750.960938 1281.6875 750.960938 1281.6875 C 750.964844 1281.6875 750.96875 1281.6875 750.96875 1281.6875 C 751.371094 1281.65625 751.910156 1281.652344 752.3125 1281.605469 C 757.964844 1280.949219 756.425781 1276.8125 748.394531 1271.070312 C 737.023438 1262.941406 719.945312 1256.421875 710.320312 1256.535156 C 708.605469 1256.652344 706.835938 1256.765625 705.710938 1257.6875 C 699.582031 1262.765625 730.75 1281.292969 750.929688 1281.6875 " fill-opacity="1" fill-rule="nonzero"/><path fill="#00016d" d="M 528.246094 393.949219 C 526.316406 394.15625 523.398438 394.460938 518.46875 398.464844 C 500.816406 412.792969 490.890625 446.839844 507.570312 448.050781 C 507.570312 448.050781 507.570312 448.050781 507.574219 448.050781 C 507.574219 448.050781 507.578125 448.050781 507.582031 448.050781 C 507.582031 448.050781 507.585938 448.050781 507.589844 448.050781 C 507.59375 448.050781 507.59375 448.050781 507.59375 448.050781 C 507.59375 448.050781 507.597656 448.050781 507.597656 448.050781 C 507.601562 448.050781 507.601562 448.050781 507.605469 448.050781 C 507.605469 448.050781 507.605469 448.050781 507.609375 448.050781 C 521.410156 446.636719 530.421875 426.183594 531.402344 423.855469 C 537.496094 409.421875 537.683594 393.957031 528.246094 393.949219 " fill-opacity="1" fill-rule="nonzero"/><path fill="#00016d" d="M 417.394531 372.621094 C 413.003906 371.601562 379.992188 415.324219 384.421875 424.292969 C 384.421875 424.292969 384.421875 424.292969 384.421875 424.304688 C 384.425781 424.304688 384.425781 424.304688 384.425781 424.304688 C 384.425781 424.304688 384.425781 424.304688 384.429688 424.304688 C 384.429688 424.304688 384.429688 424.304688 384.433594 424.3125 C 384.429688 424.3125 384.433594 424.3125 384.433594 424.3125 C 384.433594 424.3125 384.433594 424.3125 384.4375 424.3125 C 388.253906 426.519531 401.589844 406.289062 403.09375 403.972656 C 407.855469 396.667969 419.777344 376.835938 417.820312 372.859375 C 417.691406 372.792969 417.535156 372.65625 417.394531 372.621094 " fill-opacity="1" fill-rule="nonzero"/><path fill="#00016d" d="M 709.914062 659.511719 C 681.445312 666.199219 680.894531 701.835938 697.742188 716.09375 C 715.257812 730.910156 744.5625 717.535156 742.617188 689.132812 C 741.300781 669.898438 726.628906 656.609375 709.914062 659.511719 " fill-opacity="1" fill-rule="nonzero"/><path fill="#00016d" d="M 776.070312 711.949219 C 752.433594 718.089844 745.605469 748.433594 764.089844 765.175781 C 785.382812 784.460938 812.890625 765.28125 810.71875 740.152344 C 809.535156 726.46875 796.835938 709.054688 776.070312 711.949219 " fill-opacity="1" fill-rule="nonzero"/><path fill="#00016d" d="M 840.617188 865.34375 C 838.203125 847.414062 819.949219 833.585938 803.058594 836.894531 C 778.78125 843.304688 772.988281 874.945312 793.066406 891.5 C 816.734375 911.027344 844.109375 891.316406 840.617188 865.34375 " fill-opacity="1" fill-rule="nonzero"/><path fill="#00016d" d="M 872.203125 983.363281 C 869.269531 967.820312 851.34375 956.144531 835.308594 959.328125 C 811.476562 965.554688 806.898438 993.726562 827.410156 1007.949219 C 850.84375 1024.203125 876.46875 1005.976562 872.203125 983.363281 " fill-opacity="1" fill-rule="nonzero"/><path fill="#00016d" d="M 454.046875 385.761719 C 455.210938 394.171875 468.84375 383.164062 479.1875 368.25 C 486.609375 357.558594 494.160156 341.644531 489.035156 339.582031 C 478.152344 339.210938 452.316406 373.300781 454.046875 385.761719 " fill-opacity="1" fill-rule="nonzero"/><path fill="#00016d" d="M 842.34375 1191.953125 C 837.949219 1181.144531 820.527344 1172.472656 807.167969 1174.445312 C 805.917969 1174.695312 804.246094 1175.046875 803.050781 1175.480469 C 788.882812 1180.652344 790.792969 1198.214844 811.292969 1207.148438 C 832.265625 1216.289062 847.945312 1205.734375 842.34375 1191.953125 " fill-opacity="1" fill-rule="nonzero"/><path fill="#00016d" d="M 678.945312 1277.140625 C 678.574219 1277.085938 678.070312 1277.027344 677.695312 1277.027344 C 677.644531 1277.117188 677.585938 1277.246094 677.542969 1277.347656 C 682.027344 1281.753906 721.015625 1295.390625 729.882812 1296.746094 C 729.96875 1296.671875 730.082031 1296.5625 730.167969 1296.488281 C 728.683594 1295.542969 723.503906 1293.3125 714.761719 1289.839844 C 712.019531 1288.746094 687.683594 1279.128906 678.945312 1277.140625 " fill-opacity="1" fill-rule="nonzero"/><path fill="#00016d" d="M 497.4375 389.210938 C 500.371094 398.347656 514.734375 388.816406 524.878906 371.007812 C 530.394531 361.328125 536.210938 345.453125 528.332031 344.09375 C 515.472656 345.011719 493.53125 377.054688 497.4375 389.210938 " fill-opacity="1" fill-rule="nonzero"/><path fill="#00016d" d="M 770.542969 1300.226562 C 772.714844 1298.96875 763.441406 1294.511719 760.550781 1293.175781 C 749.398438 1288.019531 732.484375 1282.253906 724.59375 1281.917969 C 723.339844 1281.929688 722.039062 1281.945312 721.648438 1282.59375 C 718.851562 1287.203125 764.546875 1303.6875 770.542969 1300.226562 " fill-opacity="1" fill-rule="nonzero"/><path fill="#00016d" d="M 649.957031 490.578125 C 630.203125 494.980469 620.441406 525.265625 633.882812 540.429688 C 646.96875 555.191406 669.867188 541.503906 671.578125 517.90625 C 672.75 501.8125 662.441406 488.789062 649.957031 490.578125 " fill-opacity="1" fill-rule="nonzero"/><path fill="#00016d" d="M 613.476562 440.679688 C 595.851562 444.199219 583.996094 473.042969 593.953125 488.171875 C 603.777344 503.082031 625.175781 490.75 629.179688 467.878906 C 631.890625 452.386719 624.40625 439.425781 613.476562 440.679688 " fill-opacity="1" fill-rule="nonzero"/><path fill="#00016d" d="M 805.523438 1247.117188 C 822.835938 1250.726562 829.703125 1242.035156 823.179688 1232.390625 C 816.929688 1223.152344 800.347656 1216.046875 788.394531 1217.484375 C 786.128906 1217.882812 783.988281 1218.257812 781.785156 1219.769531 C 771.269531 1227 785.023438 1242.839844 805.523438 1247.117188 " fill-opacity="1" fill-rule="nonzero"/><path fill="#00016d" d="M 426.6875 376.878906 C 427.457031 381.46875 436.636719 373.933594 447.585938 359.726562 C 447.773438 359.484375 466.152344 335.542969 462.6875 331.691406 C 455.421875 329.703125 425.148438 367.710938 426.6875 376.878906 " fill-opacity="1" fill-rule="nonzero"/><path fill="#00016d" d="M 809.257812 1277.347656 C 819.019531 1277.21875 820.808594 1272.234375 813.515625 1265.5 C 807.738281 1260.164062 794.039062 1252.507812 779.996094 1253.308594 C 778.308594 1253.484375 775.238281 1254 773.644531 1255.585938 C 766.679688 1262.53125 791.304688 1277.585938 809.257812 1277.347656 " fill-opacity="1" fill-rule="nonzero"/><path fill="#00016d" d="M 589.070312 391.992188 C 573.777344 393.507812 558.992188 424.128906 567.101562 437.488281 C 573.765625 448.472656 592.207031 439.1875 598.183594 417.699219 C 601.097656 407.21875 601.074219 391.734375 589.070312 391.992188 " fill-opacity="1" fill-rule="nonzero"/><path fill="#00016d" d="M 697.695312 541.246094 C 677.105469 544.9375 668.730469 576.382812 684.320312 591.457031 C 698.5 605.164062 724.4375 593.109375 723.726562 567.441406 C 723.402344 555.679688 716.199219 538.996094 697.695312 541.246094 " fill-opacity="1" fill-rule="nonzero"/><path fill="#00016d" d="M 868.882812 1142.40625 C 865.96875 1134.175781 854.167969 1122.085938 834.921875 1124.691406 C 833.550781 1124.941406 831.480469 1125.429688 829.417969 1126.296875 C 813.242188 1133.105469 816.394531 1153.476562 834.945312 1162.019531 C 854.570312 1171.0625 874.867188 1159.332031 868.882812 1142.40625 " fill-opacity="1" fill-rule="nonzero"/><path fill="#00016d" d="M 392.652344 388.480469 C 400.453125 377.132812 410.023438 362.707031 411.308594 358.441406 C 411.253906 358.3125 411.1875 358.128906 411.136719 358 C 406.558594 359.5625 379.046875 400.933594 380.152344 404.597656 C 380.664062 404.417969 382.03125 403.941406 392.652344 388.480469 " fill-opacity="1" fill-rule="nonzero"/><path fill="#00016d" d="M 431.285156 347.320312 C 431.476562 347.089844 450.257812 324.464844 450.285156 320.203125 C 450.230469 320.132812 450.152344 320.050781 450.097656 319.984375 C 444.773438 319.738281 412.671875 359.4375 415.398438 362.894531 C 417.757812 363.082031 426.363281 353.21875 431.285156 347.320312 " fill-opacity="1" fill-rule="nonzero"/><path fill="#00016d" d="M 750.582031 1300.28125 C 749.351562 1300.195312 749.351562 1300.195312 749.023438 1300.507812 C 751.929688 1303.363281 793.078125 1313.527344 796.886719 1312.328125 C 796.382812 1312.050781 795.539062 1311.578125 783.902344 1308.347656 C 767.160156 1303.703125 755.949219 1300.988281 750.582031 1300.28125 " fill-opacity="1" fill-rule="nonzero"/><path fill="#00016d" d="M 848.171875 764.007812 C 825.613281 769.246094 819.796875 799.648438 838.441406 814.832031 C 858.472656 831.148438 885.917969 814.976562 882.277344 789.007812 C 880.523438 776.511719 868.785156 760.492188 848.171875 764.007812 " fill-opacity="1" fill-rule="nonzero"/><path fill="#00016d" d="M 885.601562 1111.367188 C 885.609375 1111.367188 885.613281 1111.367188 885.621094 1111.367188 C 885.625 1111.367188 885.628906 1111.367188 885.636719 1111.367188 C 885.640625 1111.363281 885.648438 1111.363281 885.652344 1111.363281 C 885.660156 1111.363281 885.664062 1111.363281 885.671875 1111.363281 C 885.675781 1111.363281 885.683594 1111.351562 885.6875 1111.351562 C 885.695312 1111.351562 885.699219 1111.351562 885.707031 1111.351562 C 885.710938 1111.351562 885.714844 1111.347656 885.722656 1111.347656 C 906.785156 1106.089844 903.476562 1089.136719 903.027344 1087.214844 C 900.835938 1077.839844 890.207031 1065.050781 869.890625 1068.257812 C 861.890625 1069.910156 857.601562 1074.148438 855.757812 1076.519531 C 844.113281 1091.527344 860.277344 1115.246094 885.585938 1111.378906 C 885.589844 1111.378906 885.597656 1111.378906 885.601562 1111.367188 " fill-opacity="1" fill-rule="nonzero"/><path fill="#00016d" d="M 577.472656 344.417969 C 565.085938 345.277344 548.070312 372.949219 552.183594 385.542969 C 555.609375 396.039062 571.402344 388.585938 579.992188 368.511719 C 583.914062 359.347656 586.695312 344.699219 577.472656 344.417969 " fill-opacity="1" fill-rule="nonzero"/><path fill="#00016d" d="M 476.070312 330.953125 C 475.910156 336.222656 486.183594 329.078125 498.046875 315.664062 C 504.152344 308.773438 515.796875 293.796875 512.820312 291.570312 C 505.195312 290.796875 476.34375 321.710938 476.070312 330.953125 " fill-opacity="1" fill-rule="nonzero"/><path fill="#00016d" d="M 819.359375 1298.75 C 822.90625 1297.683594 820.769531 1294.476562 813.90625 1290.59375 C 808.136719 1287.316406 794.105469 1281.203125 782.328125 1281.476562 C 782.328125 1281.476562 782.324219 1281.476562 782.316406 1281.476562 C 782.316406 1281.476562 782.3125 1281.476562 782.308594 1281.476562 C 782.304688 1281.476562 782.304688 1281.476562 782.300781 1281.476562 C 782.292969 1281.476562 782.292969 1281.480469 782.289062 1281.480469 C 782.285156 1281.480469 782.28125 1281.480469 782.277344 1281.480469 C 782.277344 1281.480469 782.273438 1281.480469 782.265625 1281.480469 C 782.265625 1281.480469 782.261719 1281.480469 782.257812 1281.480469 C 782.253906 1281.480469 782.253906 1281.480469 782.25 1281.480469 C 780.851562 1281.628906 778.511719 1281.863281 777.722656 1283.050781 C 773.769531 1289 808.402344 1302.0625 819.359375 1298.75 " fill-opacity="1" fill-rule="nonzero"/><path fill="#00016d" d="M 755.1875 591.558594 C 755.179688 591.5625 755.175781 591.5625 755.167969 591.5625 C 755.164062 591.5625 755.160156 591.566406 755.148438 591.566406 C 755.144531 591.570312 755.140625 591.570312 755.136719 591.570312 C 755.128906 591.574219 755.125 591.574219 755.117188 591.574219 C 755.113281 591.574219 755.109375 591.578125 755.101562 591.578125 C 755.09375 591.578125 755.089844 591.578125 755.085938 591.582031 C 755.078125 591.582031 755.074219 591.585938 755.066406 591.585938 C 755.0625 591.585938 755.054688 591.585938 755.050781 591.589844 C 729.835938 598.375 730.042969 630.414062 745.355469 642.128906 C 762.75 655.441406 786.523438 639.960938 784.492188 616.652344 C 783.515625 605.429688 774.691406 588.691406 755.1875 591.558594 " fill-opacity="1" fill-rule="nonzero"/><path fill="#00016d" d="M 722.867188 1295.527344 L 724.476562 1296 C 723.289062 1295.636719 722.042969 1295.273438 720.878906 1294.914062 L 722.867188 1295.527344 " fill-opacity="1" fill-rule="nonzero"/><path fill="#00016d" d="M 913.363281 912.242188 C 910.382812 896.355469 894.621094 885.855469 878.941406 889.3125 C 853.550781 896.445312 852.449219 926.75 871.515625 939.085938 C 891.957031 952.3125 917.769531 935.753906 913.363281 912.242188 " fill-opacity="1" fill-rule="nonzero"/><path fill="#00016d" d="M 507.460938 336.890625 C 508.742188 343.195312 520.851562 334.953125 531.902344 320.257812 C 537.148438 313.289062 546.269531 298.425781 540.980469 296.996094 C 532.636719 296.273438 505.246094 326.003906 507.460938 336.890625 " fill-opacity="1" fill-rule="nonzero"/><path fill="#00016d" d="M 942.675781 1025.605469 C 941.28125 1013.609375 927.6875 1002.296875 910.394531 1005.257812 C 890.433594 1010.796875 884.738281 1032.75 900.0625 1045.0625 C 919.472656 1060.664062 944.976562 1045.476562 942.675781 1025.605469 " fill-opacity="1" fill-rule="nonzero"/><path fill="#00016d" d="M 835.238281 1313.320312 C 836.910156 1312.398438 829.40625 1309.6875 827.0625 1308.882812 C 817.496094 1305.574219 802.285156 1301.941406 795.765625 1302.015625 C 794.808594 1302.070312 793.207031 1302.164062 793.203125 1302.914062 C 793.179688 1306.699219 830.5 1315.941406 835.238281 1313.320312 " fill-opacity="1" fill-rule="nonzero"/><path fill="#00016d" d="M 821.011719 641.0625 C 821.007812 641.0625 821 641.0625 820.996094 641.066406 C 820.992188 641.066406 820.984375 641.070312 820.980469 641.070312 C 820.972656 641.070312 820.96875 641.074219 820.964844 641.074219 C 820.957031 641.074219 820.953125 641.074219 820.949219 641.074219 C 820.945312 641.078125 820.9375 641.078125 820.929688 641.078125 C 820.929688 641.082031 820.921875 641.085938 820.917969 641.085938 C 820.910156 641.085938 820.90625 641.085938 820.902344 641.085938 C 820.894531 641.085938 820.890625 641.089844 820.882812 641.089844 C 798.894531 647.480469 794.3125 677.605469 813.339844 690.679688 C 833.285156 704.382812 855.09375 685.492188 851.960938 664.113281 C 850.28125 652.648438 838.589844 638.261719 821.011719 641.0625 " fill-opacity="1" fill-rule="nonzero"/><path fill="#00016d" d="M 550.992188 337.050781 C 553.136719 344.34375 565.933594 335.816406 575.015625 321.066406 C 579.226562 314.21875 585.691406 299.8125 578.804688 298.960938 C 567.535156 300.347656 548.042969 327.039062 550.992188 337.050781 " fill-opacity="1" fill-rule="nonzero"/><path fill="#00016d" d="M 459.425781 321.109375 C 459.425781 321.109375 459.425781 321.109375 459.429688 321.109375 C 459.429688 321.109375 459.429688 321.109375 459.429688 321.121094 C 459.429688 321.121094 459.433594 321.121094 459.433594 321.121094 C 459.4375 321.121094 459.4375 321.121094 459.4375 321.121094 C 459.4375 321.121094 459.4375 321.121094 459.441406 321.125 C 462.140625 322.253906 474.609375 309.710938 478.367188 305.839844 C 479.128906 305.054688 496.976562 286.613281 496.105469 283.421875 C 496.015625 283.378906 495.898438 283.300781 495.800781 283.28125 C 492.121094 282.660156 456.882812 314.789062 459.425781 321.109375 " fill-opacity="1" fill-rule="nonzero"/><path fill="#00016d" d="M 905.207031 1218.195312 C 902.308594 1211.949219 891.664062 1204.058594 877.082031 1206.058594 C 875.027344 1206.441406 872.964844 1207.132812 871.414062 1207.964844 C 860.53125 1213.808594 865.289062 1226.945312 880.1875 1232.203125 C 896.046875 1237.800781 910.542969 1229.679688 905.207031 1218.195312 " fill-opacity="1" fill-rule="nonzero"/><path fill="#00016d" d="M 680.941406 473.347656 C 692.492188 485.855469 712.167969 472.945312 712.363281 452.730469 C 712.457031 442.988281 706.726562 429.9375 693.6875 431.441406 C 677.683594 434.417969 669.585938 461.054688 680.941406 473.347656 " fill-opacity="1" fill-rule="nonzero"/><path fill="#00016d" d="M 869.691406 1267.125 C 883.277344 1269.585938 891.453125 1263.75 885.886719 1255.5625 C 881.046875 1248.425781 867.882812 1243.476562 857.71875 1244.96875 C 856.074219 1245.28125 853.328125 1245.820312 851.253906 1247.464844 C 843.914062 1253.300781 854.253906 1264.324219 869.691406 1267.125 " fill-opacity="1" fill-rule="nonzero"/><path fill="#00016d" d="M 657.90625 385.65625 C 641.808594 389.207031 634.199219 416.015625 643.136719 426.253906 C 651.398438 435.71875 668.753906 426.277344 671.296875 406.921875 C 672.789062 395.558594 668.097656 384.191406 657.90625 385.65625 " fill-opacity="1" fill-rule="nonzero"/><path fill="#00016d" d="M 933.007812 1172.953125 C 930.746094 1166.261719 921.53125 1157.257812 905.441406 1159.878906 C 904.675781 1160.042969 903 1160.492188 902.988281 1160.496094 C 886.597656 1165.476562 888.457031 1182.082031 902.042969 1189.152344 C 918.589844 1197.765625 937.980469 1187.621094 933.007812 1172.953125 " fill-opacity="1" fill-rule="nonzero"/><path fill="#00016d" d="M 634.445312 340.890625 C 622.09375 342.46875 609.9375 367.652344 616.382812 378.3125 C 621.765625 387.214844 636.863281 379.53125 641.851562 361.976562 C 644.34375 353.207031 644.425781 340.359375 634.445312 340.890625 " fill-opacity="1" fill-rule="nonzero"/><path fill="#00016d" d="M 740.804688 478.328125 C 720.246094 483.699219 719.140625 510.960938 730.992188 521.183594 C 743.277344 531.769531 764.363281 521.171875 763.382812 500.148438 C 762.714844 485.816406 752.585938 476.027344 740.804688 478.328125 " fill-opacity="1" fill-rule="nonzero"/><path fill="#00016d" d="M 871.957031 1293 C 879.6875 1292.511719 881.21875 1288.917969 875.679688 1284.261719 C 869.875 1279.382812 858.148438 1275.03125 848.566406 1276.199219 C 847.097656 1276.433594 844.632812 1276.835938 843.253906 1278.132812 C 837.546875 1283.488281 857.660156 1293.90625 871.957031 1293 " fill-opacity="1" fill-rule="nonzero"/><path fill="#00016d" d="M 879.960938 1310.097656 C 882.730469 1309.261719 881.25 1307.257812 876.101562 1304.875 C 870.617188 1302.339844 859.160156 1298.765625 850.082031 1299.34375 C 848.691406 1299.480469 846.914062 1299.824219 846.355469 1300.679688 C 843.65625 1304.789062 871.613281 1312.621094 879.960938 1310.097656 " fill-opacity="1" fill-rule="nonzero"/><path fill="#00016d" d="M 562.640625 289.761719 C 563.636719 294.230469 573.707031 287.558594 583.367188 276.035156 C 590.96875 266.972656 596.554688 257.046875 592.75 256.71875 C 583.828125 257.511719 561.035156 282.523438 562.640625 289.761719 " fill-opacity="1" fill-rule="nonzero"/><path fill="#00016d" d="M 821.167969 1315.164062 C 820.109375 1315.15625 820.109375 1315.15625 819.863281 1315.375 C 822.597656 1317.105469 857.953125 1321.804688 860.542969 1320.777344 C 859.625 1320.542969 858.414062 1320.355469 849.003906 1318.925781 C 834.152344 1316.664062 825.972656 1315.414062 821.167969 1315.164062 " fill-opacity="1" fill-rule="nonzero"/><path fill="#00016d" d="M 625.53125 317.15625 C 629.855469 307.539062 630.285156 297.148438 623.984375 297.628906 C 612.835938 299.671875 598.914062 322.957031 603.300781 332.230469 C 606.851562 339.746094 619.109375 331.4375 625.53125 317.15625 " fill-opacity="1" fill-rule="nonzero"/><path fill="#00016d" d="M 510.207031 279.882812 C 509.65625 282.953125 517.925781 277.585938 529.441406 267.421875 C 529.632812 267.25 548.648438 250.289062 547.277344 248.035156 C 542.171875 247.101562 511.339844 273.589844 510.207031 279.882812 " fill-opacity="1" fill-rule="nonzero"/><path fill="#00016d" d="M 923.957031 815.34375 C 899.984375 822.566406 900.953125 850.277344 915.105469 861.65625 C 931.648438 874.957031 958.929688 862.746094 955.402344 837.867188 C 953.117188 821.753906 939.011719 811.648438 923.957031 815.34375 " fill-opacity="1" fill-rule="nonzero"/><path fill="#00016d" d="M 565.410156 253.785156 C 558.042969 253.640625 530.015625 280.285156 530.539062 286.925781 C 530.808594 290.382812 539.066406 286.027344 551.925781 272.964844 C 552.625 272.257812 569.007812 255.5625 565.410156 253.785156 " fill-opacity="1" fill-rule="nonzero"/><path fill="#00016d" d="M 954.613281 937.457031 C 933.058594 942.925781 930.515625 968.402344 945.753906 979.1875 C 962.796875 991.25 987.449219 976.894531 984.539062 956.585938 C 983.1875 947.144531 973.867188 933.597656 954.613281 937.457031 " fill-opacity="1" fill-rule="nonzero"/><path fill="#00016d" d="M 450.863281 306.21875 C 450.917969 306.113281 450.910156 305.945312 450.917969 305.832031 C 447.457031 307.375 419.566406 340.367188 419.503906 342.984375 C 420.296875 342.5 422.371094 340.296875 431.507812 329.648438 C 446.472656 312.214844 449.667969 308.199219 450.863281 306.21875 " fill-opacity="1" fill-rule="nonzero"/><path fill="#00016d" d="M 892.84375 690.882812 C 868.683594 698.234375 870.695312 727.039062 886.257812 737.386719 C 904.261719 749.355469 926.695312 734.117188 923.1875 712.296875 C 920.769531 697.265625 906.875 687.457031 892.84375 690.882812 " fill-opacity="1" fill-rule="nonzero"/><path fill="#00016d" d="M 797.863281 524.996094 C 777.683594 530.773438 775.96875 557.5 790.695312 568.175781 C 806.09375 579.351562 826.246094 565.105469 823.355469 545.082031 C 822.03125 535.90625 813.941406 522.332031 797.863281 524.996094 " fill-opacity="1" fill-rule="nonzero"/><path fill="#00016d" d="M 968.117188 1121.089844 C 966.265625 1111.96875 956.140625 1103.761719 941.023438 1106.523438 C 922.429688 1110.84375 920.457031 1129.304688 933.210938 1138.105469 C 948.636719 1148.738281 971.472656 1137.609375 968.117188 1121.089844 " fill-opacity="1" fill-rule="nonzero"/><path fill="#00016d" d="M 471.148438 293.429688 C 471.332031 293.253906 489.742188 275.53125 490.953125 272.425781 C 490.953125 272.417969 490.953125 272.417969 490.953125 272.417969 C 490.953125 272.417969 490.953125 272.417969 490.902344 272.25 C 486.941406 272.097656 455.578125 302.667969 456.304688 305.96875 C 457.707031 306.097656 466.207031 298.167969 471.148438 293.429688 " fill-opacity="1" fill-rule="nonzero"/><path fill="#00016d" d="M 858.007812 613.773438 C 875.339844 625.117188 893.355469 608.808594 890.097656 590.726562 C 888.402344 581.3125 878.6875 568.742188 863.21875 571.671875 C 846.410156 575.945312 840.40625 602.25 858.007812 613.773438 " fill-opacity="1" fill-rule="nonzero"/><path fill="#00016d" d="M 1008.3125 1061.785156 C 1007.054688 1052.285156 996.761719 1043.832031 982.316406 1046.707031 C 966.730469 1050.648438 958.753906 1069.503906 972.753906 1079.980469 C 988.855469 1092.023438 1010.453125 1078.03125 1008.3125 1061.785156 " fill-opacity="1" fill-rule="nonzero"/><path fill="#00016d" d="M 863.167969 1314.636719 C 861.632812 1314.777344 861.207031 1314.914062 861.070312 1315.300781 C 862.503906 1318.144531 891.023438 1321.25 894.675781 1319.863281 C 894.691406 1319.785156 894.703125 1319.6875 894.71875 1319.613281 C 894.421875 1319.398438 893.640625 1318.820312 886.667969 1317.441406 C 884.070312 1316.921875 870.730469 1314.371094 863.167969 1314.636719 " fill-opacity="1" fill-rule="nonzero"/><path fill="#00016d" d="M 603.164062 286.957031 C 604.148438 292.746094 613.875 287.582031 622.46875 274.375 C 627.9375 265.972656 631.007812 257 626.449219 257.152344 C 618.175781 258.402344 601.855469 279.300781 603.164062 286.957031 " fill-opacity="1" fill-rule="nonzero"/><path fill="#00016d" d="M 518.121094 258.433594 C 525.214844 252.707031 537.191406 242.765625 537.734375 240.539062 C 535.554688 238.589844 502.960938 264.90625 502.503906 268.988281 C 502.785156 269.273438 503.636719 270.132812 518.121094 258.433594 " fill-opacity="1" fill-rule="nonzero"/><path fill="#00016d" d="M 724.292969 408.902344 C 733.101562 417.363281 748.578125 408.960938 748.121094 392.214844 C 747.941406 385.6875 744.484375 373.773438 732.679688 375.464844 C 719.140625 378.320312 715.457031 400.417969 724.292969 408.902344 " fill-opacity="1" fill-rule="nonzero"/><path fill="#00016d" d="M 940.882812 1232.265625 C 940.007812 1232.46875 938.839844 1232.75 937.996094 1233.054688 C 927.410156 1236.855469 929.761719 1246.613281 939.183594 1250.863281 C 949.972656 1255.722656 965.289062 1250.628906 961.78125 1240.976562 C 960.101562 1236.367188 953.15625 1230.253906 940.882812 1232.265625 " fill-opacity="1" fill-rule="nonzero"/><path fill="#00016d" d="M 708.597656 350.421875 C 709.558594 341.160156 705.738281 332.382812 697.679688 333.71875 C 685.222656 336.75 679.933594 357.449219 687.007812 365.539062 C 693.652344 373.132812 707.007812 365.777344 708.597656 350.421875 " fill-opacity="1" fill-rule="nonzero"/><path fill="#00016d" d="M 926.871094 1281.941406 C 936.933594 1283.796875 945.855469 1280.042969 941.542969 1273.5 C 938.035156 1268.183594 928.875 1265.136719 920.695312 1266.558594 C 919.371094 1266.84375 917.160156 1267.316406 915.460938 1268.527344 C 909.800781 1272.546875 916.089844 1279.945312 926.871094 1281.941406 " fill-opacity="1" fill-rule="nonzero"/><path fill="#00016d" d="M 990.574219 1199.617188 C 989.316406 1194.445312 982.742188 1187.636719 969.800781 1190.058594 C 954.476562 1194.132812 955.261719 1206.769531 964.414062 1212.085938 C 976.492188 1219.101562 993.367188 1211.058594 990.574219 1199.617188 " fill-opacity="1" fill-rule="nonzero"/><path fill="#00016d" d="M 968.527344 740.101562 C 947.542969 745.945312 948.53125 771.84375 961.667969 781.613281 C 976.542969 792.675781 1000.394531 780.226562 996.203125 758.429688 C 994.640625 750.300781 986.847656 736.015625 968.527344 740.101562 " fill-opacity="1" fill-rule="nonzero"/><path fill="#00016d" d="M 618.507812 218.527344 C 612.164062 218.878906 587.542969 239.777344 587.511719 244.84375 C 587.496094 247.386719 594.164062 244.042969 605.34375 234.035156 C 605.503906 233.890625 621.425781 219.59375 618.507812 218.527344 " fill-opacity="1" fill-rule="nonzero"/><path fill="#00016d" d="M 566.410156 240.984375 C 566.203125 243.105469 573.320312 238.964844 584.113281 230.660156 C 585.839844 229.335938 600.980469 217.636719 601.183594 215.300781 C 601.136719 215.253906 601.070312 215.191406 601.023438 215.144531 C 596.246094 214.839844 566.808594 236.824219 566.410156 240.984375 " fill-opacity="1" fill-rule="nonzero"/><path fill="#00016d" d="M 992.277344 905.023438 C 1006.597656 915.511719 1030.359375 903.9375 1027.398438 883.0625 C 1026.25 874.976562 1019.113281 860.792969 1000.320312 865.003906 C 977.472656 872.460938 980.949219 896.726562 992.277344 905.023438 " fill-opacity="1" fill-rule="nonzero"/><path fill="#00016d" d="M 773.015625 452.40625 C 784.578125 461.921875 800.367188 450.566406 798.226562 434.273438 C 797.261719 426.914062 791.238281 415.984375 779.191406 417.996094 C 765.546875 421.160156 761.621094 443.03125 773.015625 452.40625 " fill-opacity="1" fill-rule="nonzero"/><path fill="#00016d" d="M 1051.484375 995.484375 C 1050.023438 985.035156 1038.527344 978.226562 1027.359375 981.199219 C 1010.78125 986.582031 1005.441406 1005.535156 1017.835938 1014.996094 C 1032.980469 1026.546875 1053.722656 1011.582031 1051.484375 995.484375 " fill-opacity="1" fill-rule="nonzero"/><path fill="#00016d" d="M 928.898438 1303.226562 C 933.703125 1302.40625 934.355469 1299.90625 930.484375 1297.144531 C 927.304688 1294.875 919.089844 1291.65625 910.582031 1292.695312 C 907.796875 1293.128906 906.632812 1293.976562 906.136719 1294.613281 C 902.816406 1298.910156 918.765625 1304.941406 928.898438 1303.226562 " fill-opacity="1" fill-rule="nonzero"/><path fill="#00016d" d="M 661.792969 322.28125 C 666.160156 329.800781 677.476562 322.371094 681.015625 309.660156 C 683.371094 301.207031 681.539062 292.382812 675.144531 293.242188 C 665.433594 295.488281 656.949219 313.941406 661.792969 322.28125 " fill-opacity="1" fill-rule="nonzero"/><path fill="#00016d" d="M 1006.226562 1140.265625 C 993.453125 1144.074219 988.457031 1156.667969 996.851562 1163.902344 C 1008.671875 1174.101562 1027.574219 1164.085938 1026.703125 1151.53125 C 1026.148438 1143.476562 1016.007812 1137.898438 1006.226562 1140.265625 " fill-opacity="1" fill-rule="nonzero"/><path fill="#00016d" d="M 845.085938 498.386719 C 845.089844 498.386719 845.089844 498.386719 845.09375 498.386719 C 845.097656 498.386719 845.097656 498.386719 845.101562 498.386719 C 845.101562 498.386719 845.105469 498.386719 845.109375 498.386719 C 845.113281 498.386719 845.113281 498.386719 845.113281 498.375 C 845.117188 498.386719 845.121094 498.375 845.125 498.375 C 845.125 498.375 845.125 498.375 845.128906 498.375 C 845.132812 498.375 845.136719 498.375 845.136719 498.375 C 845.140625 498.375 845.140625 498.367188 845.144531 498.367188 C 856.023438 494.84375 858.46875 483.875 857.457031 477.371094 C 855.789062 466.628906 845.265625 458.636719 835.804688 460.917969 C 833.886719 461.527344 829.898438 462.796875 826.59375 467.964844 C 817.386719 482.328125 828.96875 501.378906 845.085938 498.386719 " fill-opacity="1" fill-rule="nonzero"/><path fill="#00016d" d="M 929.171875 656.636719 C 945.898438 669.238281 964.46875 653.929688 961.167969 636.050781 C 959.199219 625.382812 948.625 615.601562 934.976562 618.398438 C 918.449219 623.863281 915.089844 646.019531 929.171875 656.636719 " fill-opacity="1" fill-rule="nonzero"/><path fill="#00016d" d="M 555.210938 234.097656 C 556.710938 234.566406 567.171875 227.585938 571.59375 224.5625 C 571.777344 224.429688 590.097656 211.871094 590.601562 209.914062 C 587.058594 209.050781 554.972656 230.96875 555.210938 234.097656 " fill-opacity="1" fill-rule="nonzero"/><path fill="#00016d" d="M 665.75 254.777344 C 658.441406 256.390625 647.234375 273.34375 650.109375 280.917969 C 652.65625 287.625 662.691406 278.953125 667.066406 268.433594 C 669.894531 261.644531 669.929688 254.355469 665.75 254.777344 " fill-opacity="1" fill-rule="nonzero"/><path fill="#00016d" d="M 641.996094 219.660156 C 636.921875 219.792969 616.597656 238.933594 616.71875 245.132812 C 616.796875 249.09375 625.886719 242.40625 633.363281 234.226562 C 637.789062 229.382812 644.867188 220.132812 641.996094 219.660156 " fill-opacity="1" fill-rule="nonzero"/><path fill="#00016d" d="M 930.507812 1312.894531 C 925.527344 1311.269531 916.269531 1309.902344 911.332031 1310.503906 C 910.425781 1310.644531 908.910156 1310.890625 908.679688 1311.621094 C 907.625 1314.964844 929.730469 1317.535156 933.78125 1315.683594 C 935.410156 1314.9375 933.15625 1313.753906 930.507812 1312.894531 " fill-opacity="1" fill-rule="nonzero"/><path fill="#00016d" d="M 496.644531 259.429688 C 496.683594 259.355469 496.746094 259.246094 496.785156 259.171875 C 494.671875 260.101562 468.558594 284.023438 467.203125 286.957031 C 467.683594 286.605469 467.683594 286.605469 478.46875 276.578125 C 492.261719 263.742188 495.539062 260.6875 496.644531 259.429688 " fill-opacity="1" fill-rule="nonzero"/><path fill="#00016d" d="M 518.285156 246.339844 C 535.261719 233.394531 536.539062 231.902344 537.472656 230.808594 C 535.660156 229.832031 506.480469 252.15625 506.25 254.699219 C 506.535156 254.722656 507.210938 254.777344 518.285156 246.339844 " fill-opacity="1" fill-rule="nonzero"/><path fill="#00016d" d="M 625.335938 204.617188 C 626.054688 205.503906 630.539062 203.042969 641.328125 195.828125 C 643.613281 194.300781 655.035156 186.605469 655.566406 185.160156 C 655.535156 185.128906 655.496094 185.097656 655.460938 185.066406 C 653.320312 184.785156 625.761719 200.941406 625.335938 204.617188 " fill-opacity="1" fill-rule="nonzero"/><path fill="#00016d" d="M 1067.324219 1096.132812 C 1067.332031 1095.960938 1066.476562 1079.566406 1048.347656 1084.449219 C 1027.476562 1090.832031 1036.511719 1107.53125 1038.484375 1109.546875 C 1045.230469 1116.457031 1066.386719 1112.785156 1067.324219 1096.132812 " fill-opacity="1" fill-rule="nonzero"/><path fill="#00016d" d="M 669.238281 219.441406 C 663.679688 220.546875 651.140625 236.167969 651.816406 241.144531 C 652.328125 244.914062 659.480469 240.816406 665.480469 231.988281 C 666.933594 229.847656 673.941406 219.191406 669.238281 219.441406 " fill-opacity="1" fill-rule="nonzero"/><path fill="#00016d" d="M 940.710938 1320.136719 C 931.417969 1319.742188 927.246094 1319.6875 924.1875 1319.941406 C 922.613281 1320.09375 922.554688 1320.199219 922.460938 1320.375 C 924.539062 1321.570312 944.015625 1321.265625 946.835938 1320.566406 C 946.664062 1320.445312 946.585938 1320.390625 940.710938 1320.136719 " fill-opacity="1" fill-rule="nonzero"/><path fill="#00016d" d="M 1065.9375 943.347656 C 1068.722656 945.4375 1076.386719 949.535156 1087.292969 942.351562 C 1090.867188 939.996094 1096.640625 934.496094 1095.164062 924.097656 C 1093.21875 910.480469 1082.257812 908.628906 1073.46875 911.1875 C 1055.738281 917.414062 1057.566406 937.070312 1065.9375 943.347656 " fill-opacity="1" fill-rule="nonzero"/><path fill="#00016d" d="M 1038.480469 825.019531 C 1047.164062 832.214844 1071.40625 828.117188 1068.984375 804.792969 C 1068.960938 804.578125 1065.851562 783.652344 1045.488281 788.851562 C 1023.738281 795.386719 1031.191406 818.976562 1038.480469 825.019531 " fill-opacity="1" fill-rule="nonzero"/><path fill="#00016d" d="M 1006.363281 699.996094 C 1008.035156 701.136719 1016.902344 706.480469 1027 699.484375 C 1031.414062 696.425781 1036.230469 690.699219 1034.089844 680.789062 C 1031.320312 667.925781 1022.105469 662.085938 1010.058594 665.546875 C 992.375 671.890625 996.363281 693.171875 1006.363281 699.996094 " fill-opacity="1" fill-rule="nonzero"/><path fill="#00016d" d="M 898.65625 537.589844 C 908.726562 543.460938 926.769531 538.023438 922.875 519.933594 C 920.855469 510.554688 912.90625 502.347656 901.609375 504.78125 C 883.847656 509.761719 888.472656 531.65625 898.65625 537.589844 " fill-opacity="1" fill-rule="nonzero"/><path fill="#00016d" d="M 585.8125 203.765625 C 585.820312 203.71875 585.753906 203.675781 585.726562 203.636719 C 582.8125 203.71875 557.726562 219.023438 554.242188 223.570312 C 555.761719 223.367188 559.355469 221.34375 568.496094 215.558594 C 581.464844 207.355469 585.351562 204.703125 585.8125 203.765625 " fill-opacity="1" fill-rule="nonzero"/><path fill="#00016d" d="M 974.648438 1282.679688 C 973.671875 1282.90625 972.039062 1283.289062 970.859375 1284.113281 C 967.921875 1286.171875 968.929688 1290.460938 976.351562 1292.160156 C 982.679688 1293.613281 991.34375 1291.277344 988.410156 1286.515625 C 986.613281 1283.601562 981.660156 1281.277344 974.648438 1282.679688 " fill-opacity="1" fill-rule="nonzero"/><path fill="#00016d" d="M 644.128906 206.714844 C 646.5 205.851562 649.746094 204.207031 657.386719 198.09375 C 663.636719 193.09375 670.78125 187.0625 669.335938 186.710938 C 669.328125 186.710938 669.316406 186.710938 669.308594 186.710938 C 666.175781 186.886719 641.476562 204.140625 644.128906 206.714844 " fill-opacity="1" fill-rule="nonzero"/><path fill="#00016d" d="M 613.546875 200.820312 C 616.179688 200.097656 620.414062 197.902344 629.722656 192.449219 C 645.421875 183.253906 645.609375 182.71875 645.785156 182.21875 L 645.785156 182.210938 C 645.78125 182.210938 645.78125 182.210938 645.78125 182.210938 C 643.476562 181.890625 615.382812 197.171875 613.546875 200.820312 " fill-opacity="1" fill-rule="nonzero"/><path fill="#00016d" d="M 995.851562 1253.328125 C 995.363281 1253.4375 994.882812 1253.566406 994.40625 1253.71875 C 988.132812 1255.660156 984.859375 1262.066406 992.828125 1265.96875 C 999.851562 1269.410156 1011.707031 1265.261719 1009.554688 1258.546875 C 1009.152344 1257.308594 1006.621094 1251.214844 995.851562 1253.328125 " fill-opacity="1" fill-rule="nonzero"/><path fill="#00016d" d="M 724.472656 308.625 C 727.949219 313.113281 738.382812 311.707031 739.59375 297.5625 C 739.601562 297.429688 739.53125 284.941406 731.238281 286.113281 C 721.777344 288.136719 720.515625 303.523438 724.472656 308.625 " fill-opacity="1" fill-rule="nonzero"/><path fill="#00016d" d="M 761.144531 347.6875 C 761.195312 347.726562 766.511719 352.132812 771.503906 348.613281 C 773.296875 347.359375 778.0625 344 777.539062 336.140625 C 777.5 335.542969 776.441406 321.558594 765.601562 323.410156 C 754.996094 325.902344 754.738281 342.269531 761.144531 347.6875 " fill-opacity="1" fill-rule="nonzero"/><path fill="#00016d" d="M 1025.519531 1216 C 1014.96875 1218.964844 1014.511719 1227.234375 1019.804688 1231.058594 C 1025.738281 1235.347656 1040.332031 1231.453125 1039.121094 1222.148438 C 1038.378906 1216.472656 1033.167969 1214.113281 1025.519531 1216 " fill-opacity="1" fill-rule="nonzero"/><path fill="#00016d" d="M 970.53125 578.601562 C 978.65625 583.773438 996.703125 580.335938 993.589844 561.878906 C 993.078125 558.847656 987.347656 544.359375 972.476562 548.65625 C 955.328125 554.542969 963.429688 574.082031 970.53125 578.601562 " fill-opacity="1" fill-rule="nonzero"/><path fill="#00016d" d="M 1094.347656 1021.828125 C 1076.988281 1027.660156 1081.421875 1042.636719 1084.171875 1046.132812 C 1090.632812 1054.363281 1110.570312 1049.304688 1111.613281 1032.847656 C 1111.773438 1030.304688 1109.273438 1017.46875 1094.347656 1021.828125 " fill-opacity="1" fill-rule="nonzero"/><path fill="#00016d" d="M 530.652344 230.851562 C 544.441406 220.714844 544.441406 220.714844 545.285156 219.972656 C 545.371094 219.890625 545.480469 219.785156 545.527344 219.679688 C 543.324219 220.613281 523.480469 235.398438 521.9375 237.25 C 525.019531 235.363281 527.746094 232.992188 530.652344 230.851562 " fill-opacity="1" fill-rule="nonzero"/><path fill="#00016d" d="M 639.589844 178.683594 C 638.539062 178.105469 613.300781 190.4375 610.328125 193.71875 C 611.140625 193.964844 615.003906 192.058594 623.9375 187.410156 C 636.449219 180.902344 639.226562 179.355469 639.589844 178.683594 " fill-opacity="1" fill-rule="nonzero"/><path fill="#00016d" d="M 974.175781 1308.820312 C 978.347656 1308.242188 979.171875 1307.152344 976.773438 1305.414062 C 976.726562 1305.375 971.492188 1302.125 963.988281 1303.449219 C 963.089844 1303.625 961.21875 1304.003906 960.632812 1304.796875 C 959.203125 1306.71875 966.835938 1309.855469 974.175781 1308.820312 " fill-opacity="1" fill-rule="nonzero"/><path fill="#00016d" d="M 713.6875 261.082031 C 714.597656 256.054688 714.597656 250.191406 709.445312 250.800781 C 701.613281 252.292969 698.503906 267.230469 701.351562 270.917969 C 704.027344 274.375 711.742188 271.882812 713.6875 261.082031 " fill-opacity="1" fill-rule="nonzero"/><path fill="#00016d" d="M 1075.902344 1177.703125 C 1075.769531 1173.960938 1073.957031 1168.058594 1063.261719 1170.652344 C 1047.648438 1175.449219 1054.050781 1186.296875 1055.476562 1187.589844 C 1060.683594 1192.289062 1076.25 1187.957031 1075.902344 1177.703125 " fill-opacity="1" fill-rule="nonzero"/><path fill="#00016d" d="M 679.175781 196.710938 C 679.480469 196.402344 679.882812 195.988281 680.1875 195.667969 C 687.378906 188.222656 686.949219 187.382812 686 187.40625 C 682.289062 187.984375 667.976562 201.230469 667.761719 204.269531 C 667.667969 205.640625 670.40625 205.648438 679.175781 196.710938 " fill-opacity="1" fill-rule="nonzero"/><path fill="#00016d" d="M 809.273438 387.011719 C 816.011719 391.472656 828.832031 387.238281 826.050781 373.804688 C 824.601562 366.796875 820.03125 360.046875 811.566406 362.113281 C 798.6875 365.964844 803.140625 382.957031 809.273438 387.011719 " fill-opacity="1" fill-rule="nonzero"/><path fill="#00016d" d="M 867.128906 425.757812 C 875.203125 430.488281 887.472656 424.628906 883.777344 412.214844 C 882.28125 407.179688 878.246094 399.074219 868.0625 401.394531 C 854.90625 405.046875 860.523438 421.882812 867.128906 425.757812 " fill-opacity="1" fill-rule="nonzero"/><path fill="#00016d" d="M 1082.792969 740.1875 C 1090.035156 746.816406 1108.566406 744.625 1106.960938 723.796875 C 1106.511719 717.917969 1099.390625 713.132812 1099.3125 713.085938 C 1094.753906 710.242188 1090.441406 711.421875 1088.125 712.054688 C 1072.167969 717.304688 1076.675781 734.59375 1082.792969 740.1875 " fill-opacity="1" fill-rule="nonzero"/><path fill="#00016d" d="M 964.203125 1315.292969 C 963.566406 1315.398438 962.242188 1315.628906 962.277344 1315.960938 C 962.324219 1316.445312 965.363281 1316.984375 970.195312 1317.015625 C 972.566406 1317.035156 978.132812 1316.703125 978.398438 1316.085938 C 978.246094 1315.941406 977.980469 1315.8125 976.121094 1315.507812 C 976.054688 1315.5 969.355469 1314.515625 964.203125 1315.292969 " fill-opacity="1" fill-rule="nonzero"/><path fill="#00016d" d="M 691.054688 234.050781 C 691.378906 234.964844 692.449219 236.863281 695.363281 234.703125 C 696.984375 233.511719 699.367188 231.347656 701.351562 226.425781 C 702.769531 222.898438 704.609375 217.035156 700.957031 217.308594 C 696.082031 218.085938 689.671875 230.152344 691.054688 234.050781 " fill-opacity="1" fill-rule="nonzero"/><path fill="#00016d" d="M 1114.316406 864.691406 C 1118.316406 867.480469 1126.253906 867.617188 1129.042969 865.675781 C 1131.644531 863.859375 1139.574219 858.328125 1137.953125 848.214844 C 1136.652344 840.074219 1130.648438 833.359375 1120.167969 836.707031 C 1103.617188 842.800781 1108.386719 860.550781 1114.316406 864.691406 " fill-opacity="1" fill-rule="nonzero"/><path fill="#00016d" d="M 573.144531 205.113281 C 573.277344 205.039062 586.320312 197.429688 587.78125 196.050781 C 587.777344 196.015625 587.78125 195.960938 587.78125 195.914062 C 585.636719 196.289062 565.902344 207.710938 563.289062 210.445312 C 563.292969 210.484375 563.304688 210.539062 563.3125 210.570312 C 564.136719 210.339844 566.527344 208.96875 573.144531 205.113281 " fill-opacity="1" fill-rule="nonzero"/><path fill="#00016d" d="M 1142.507812 954.164062 C 1130.183594 958.21875 1129.046875 970.929688 1134.867188 976.765625 C 1141.332031 983.253906 1156.738281 976.320312 1156.53125 964.386719 C 1156.484375 962.027344 1155.617188 950.433594 1142.507812 954.164062 " fill-opacity="1" fill-rule="nonzero"/><path fill="#00016d" d="M 1117.828125 1125.332031 C 1117.863281 1122.269531 1116.816406 1115.445312 1106.578125 1118.132812 C 1094.628906 1121.742188 1094.933594 1131.894531 1098.261719 1135.398438 C 1103.34375 1140.746094 1117.746094 1134.890625 1117.828125 1125.332031 " fill-opacity="1" fill-rule="nonzero"/><path fill="#00016d" d="M 1047.074219 617.796875 C 1055.472656 623.132812 1069.988281 616.589844 1066.332031 603.398438 C 1065.390625 599.988281 1061.34375 589.140625 1048.914062 592.605469 C 1034.902344 597.253906 1040.148438 613.402344 1047.074219 617.796875 " fill-opacity="1" fill-rule="nonzero"/><path fill="#00016d" d="M 932.691406 463.460938 C 938.742188 467.300781 951.902344 464.886719 948.71875 451.503906 C 948.6875 451.367188 944.953125 438.042969 933.078125 441.519531 C 920.027344 445.988281 928.023438 460.496094 932.691406 463.460938 " fill-opacity="1" fill-rule="nonzero"/><path fill="#00016d" d="M 702.664062 194.464844 C 703.226562 193.695312 708.089844 186.996094 705.710938 186.996094 C 702.214844 187.722656 694.855469 197.78125 694.980469 200.003906 C 694.984375 200.046875 696.023438 203.492188 702.664062 194.464844 " fill-opacity="1" fill-rule="nonzero"/><path fill="#00016d" d="M 1018.289062 1293.839844 C 1017.917969 1293.921875 1017.550781 1294.019531 1017.1875 1294.140625 C 1013.855469 1295.269531 1014.6875 1296.996094 1016.300781 1297.8125 C 1018.945312 1299.136719 1025.457031 1298.058594 1024.527344 1295.222656 C 1024.515625 1295.199219 1023.128906 1292.851562 1018.289062 1293.839844 " fill-opacity="1" fill-rule="nonzero"/><path fill="#00016d" d="M 1153.105469 1059.554688 C 1146.742188 1061.882812 1142.265625 1069.773438 1146.390625 1074.65625 C 1150.589844 1079.617188 1161.933594 1074.992188 1162.753906 1066.070312 C 1163.378906 1059.261719 1158.359375 1057.890625 1153.105469 1059.554688 " fill-opacity="1" fill-rule="nonzero"/><path fill="#00016d" d="M 1005.585938 500.578125 C 1013.265625 504.394531 1021.882812 498.347656 1018.285156 489.023438 C 1015.949219 482.953125 1010.570312 480.085938 1004.902344 481.902344 C 994.574219 485.785156 1000 497.8125 1005.585938 500.578125 " fill-opacity="1" fill-rule="nonzero"/><path fill="#00016d" d="M 1040.246094 1270.15625 C 1035.324219 1271.398438 1034.539062 1274.488281 1036.160156 1276.074219 C 1038.984375 1278.824219 1046.777344 1276.394531 1046.589844 1272.828125 C 1046.511719 1271.328125 1045.085938 1269.089844 1040.246094 1270.15625 " fill-opacity="1" fill-rule="nonzero"/><path fill="#00016d" d="M 1161.257812 779.777344 C 1166.066406 783.367188 1177.414062 779.265625 1175.753906 768.863281 C 1174.925781 763.660156 1172.230469 757.992188 1164.101562 760.507812 C 1153.519531 764.28125 1156.726562 776.394531 1161.257812 779.777344 " fill-opacity="1" fill-rule="nonzero"/><path fill="#00016d" d="M 1190.023438 882.660156 C 1179.847656 886.28125 1182.199219 897.390625 1185.65625 899.890625 C 1185.695312 899.921875 1190.105469 902.886719 1195.535156 898.875 C 1196.746094 897.976562 1200.449219 895.246094 1199.871094 889.386719 C 1199.519531 885.832031 1197.785156 880.226562 1190.023438 882.660156 " fill-opacity="1" fill-rule="nonzero"/><path fill="#00016d" d="M 1070.742188 1238.167969 C 1063.171875 1240.429688 1066.125 1245.539062 1066.164062 1245.585938 C 1068.113281 1248.03125 1076.476562 1246.164062 1076.9375 1241.203125 C 1077.0625 1239.757812 1076.730469 1236.566406 1070.742188 1238.167969 " fill-opacity="1" fill-rule="nonzero"/><path fill="#00016d" d="M 837.191406 324.972656 C 840.550781 326.886719 847.558594 324.957031 845.21875 317.652344 C 844.476562 315.324219 842.15625 310.050781 836.773438 311.492188 C 829.480469 313.851562 833.96875 323.136719 837.191406 324.972656 " fill-opacity="1" fill-rule="nonzero"/><path fill="#00016d" d="M 1012.230469 1308.773438 C 1011.597656 1308.46875 1009.777344 1307.835938 1006.589844 1308.484375 C 1006.074219 1308.589844 1005.007812 1308.828125 1004.816406 1309.183594 C 1004.328125 1310.097656 1009.210938 1310.640625 1011.972656 1309.695312 C 1012.835938 1309.398438 1012.917969 1309.101562 1012.230469 1308.773438 " fill-opacity="1" fill-rule="nonzero"/><path fill="#00016d" d="M 789.894531 290.292969 C 792.300781 292.332031 798.941406 292.105469 797.996094 284.117188 C 797.984375 284.03125 796.679688 276.210938 790.820312 277.613281 C 785.078125 279.347656 787.121094 287.933594 789.894531 290.292969 " fill-opacity="1" fill-rule="nonzero"/><path fill="#00016d" d="M 738.148438 219.890625 C 738.445312 218.039062 738.820312 213.78125 735.964844 214.179688 C 732.289062 214.972656 731.421875 222.488281 732.851562 224.15625 C 734.167969 225.703125 737.378906 224.726562 738.148438 219.890625 " fill-opacity="1" fill-rule="nonzero"/><path fill="#00016d" d="M 755.125 256.777344 C 755.851562 257.398438 757.785156 258.597656 760.042969 256.550781 C 761 255.691406 762.085938 253.96875 761.828125 250.707031 C 761.703125 249.132812 760.992188 244.058594 757.015625 244.917969 C 751.851562 246.382812 752.863281 254.875 755.125 256.777344 " fill-opacity="1" fill-rule="nonzero"/><path fill="#00016d" d="M 1125.699219 655.621094 C 1129.839844 658.078125 1141.007812 656.167969 1138.53125 644.726562 C 1138.511719 644.628906 1135.964844 634.886719 1126.871094 637.675781 C 1116.527344 641.367188 1121.445312 653.097656 1125.699219 655.621094 " fill-opacity="1" fill-rule="nonzero"/><path fill="#00016d" d="M 894.835938 359.171875 C 898.796875 360.664062 899.855469 359.492188 901.195312 358.007812 C 901.855469 357.277344 903.234375 355.171875 901.71875 351.535156 C 900.054688 347.539062 896.414062 345.460938 892.867188 346.480469 C 892.699219 346.542969 892.46875 346.613281 892.304688 346.679688 C 887.597656 348.683594 889.296875 357.085938 894.835938 359.171875 " fill-opacity="1" fill-rule="nonzero"/><path fill="#00016d" d="M 1109.488281 1197.433594 C 1104.195312 1199.039062 1102.558594 1203.410156 1104.042969 1205.574219 C 1105.453125 1207.632812 1109.640625 1206.59375 1109.6875 1206.570312 C 1109.722656 1206.558594 1114.136719 1204.21875 1114.761719 1201.226562 C 1115.066406 1199.804688 1114.738281 1196.058594 1109.488281 1197.433594 " fill-opacity="1" fill-rule="nonzero"/><path fill="#00016d" d="M 1153.421875 1149.519531 C 1148.039062 1151.425781 1148.414062 1156.011719 1149.125 1156.980469 C 1150.632812 1158.988281 1156.707031 1157.117188 1157.636719 1152.820312 C 1157.8125 1151.980469 1158.449219 1147.914062 1153.421875 1149.519531 " fill-opacity="1" fill-rule="nonzero"/><path fill="#00016d" d="M 1202.183594 995.371094 C 1196.714844 997.320312 1195.582031 1003.859375 1198.027344 1006.554688 C 1200.730469 1009.542969 1208.476562 1005.714844 1208.722656 1000.011719 C 1208.828125 997.457031 1208.121094 993.453125 1202.183594 995.371094 " fill-opacity="1" fill-rule="nonzero"/><path fill="#00016d" d="M 1082.09375 536.09375 C 1086.007812 538.050781 1093.105469 534.945312 1090.53125 528.332031 C 1089.535156 525.765625 1087.089844 521.699219 1081.894531 523.296875 C 1074.269531 526.03125 1078.734375 534.410156 1082.09375 536.09375 " fill-opacity="1" fill-rule="nonzero"/><path fill="#00016d" d="M 960.039062 392.289062 C 960.320312 392.394531 962.820312 393.320312 964.503906 391.703125 C 965.875 390.386719 966.203125 388.824219 965.480469 387.0625 C 965.460938 387.003906 963.238281 381.726562 958.6875 382.953125 C 958.464844 383.027344 958.246094 383.113281 958.03125 383.210938 C 953.769531 385.207031 956.851562 391.023438 960.039062 392.289062 " fill-opacity="1" fill-rule="nonzero"/><g fill="#ffffff" fill-opacity="1"><g transform="translate(719.402306, 1444.731408)"><g><path d="M 7.203125 -5.421875 L 7.203125 0 L 5.453125 0 L 5.453125 -5.421875 L 0.421875 -13.078125 L 2.359375 -13.078125 L 6.34375 -6.84375 L 10.3125 -13.078125 L 12.25 -13.078125 Z M 7.203125 -5.421875 "/></g></g></g><g fill="#ffffff" fill-opacity="1"><g transform="translate(730.328643, 1444.731408)"><g><path d="M 9.765625 -5.03125 C 9.765625 -3.269531 9.378906 -1.957031 8.609375 -1.09375 C 7.835938 -0.238281 6.710938 0.1875 5.234375 0.1875 C 3.773438 0.1875 2.671875 -0.257812 1.921875 -1.15625 C 1.171875 -2.050781 0.796875 -3.34375 0.796875 -5.03125 C 0.796875 -8.488281 2.296875 -10.21875 5.296875 -10.21875 C 6.828125 -10.21875 7.953125 -9.796875 8.671875 -8.953125 C 9.398438 -8.109375 9.765625 -6.800781 9.765625 -5.03125 Z M 8.015625 -5.03125 C 8.015625 -6.414062 7.804688 -7.421875 7.390625 -8.046875 C 6.984375 -8.671875 6.296875 -8.984375 5.328125 -8.984375 C 4.347656 -8.984375 3.640625 -8.660156 3.203125 -8.015625 C 2.765625 -7.378906 2.546875 -6.382812 2.546875 -5.03125 C 2.546875 -3.707031 2.757812 -2.710938 3.1875 -2.046875 C 3.625 -1.378906 4.300781 -1.046875 5.21875 -1.046875 C 6.21875 -1.046875 6.929688 -1.367188 7.359375 -2.015625 C 7.796875 -2.660156 8.015625 -3.664062 8.015625 -5.03125 Z M 8.015625 -5.03125 "/></g></g></g><g fill="#ffffff" fill-opacity="1"><g transform="translate(740.89337, 1444.731408)"><g><path d="M 2.90625 -10.03125 L 2.90625 -3.671875 C 2.90625 -3.015625 2.96875 -2.503906 3.09375 -2.140625 C 3.226562 -1.773438 3.4375 -1.507812 3.71875 -1.34375 C 4.007812 -1.1875 4.429688 -1.109375 4.984375 -1.109375 C 5.785156 -1.109375 6.414062 -1.378906 6.875 -1.921875 C 7.34375 -2.472656 7.578125 -3.238281 7.578125 -4.21875 L 7.578125 -10.03125 L 9.25 -10.03125 L 9.25 -2.140625 C 9.25 -0.972656 9.269531 -0.257812 9.3125 0 L 7.734375 0 C 7.722656 -0.03125 7.710938 -0.113281 7.703125 -0.25 C 7.703125 -0.382812 7.695312 -0.539062 7.6875 -0.71875 C 7.675781 -0.894531 7.664062 -1.226562 7.65625 -1.71875 L 7.625 -1.71875 C 7.238281 -1.019531 6.789062 -0.523438 6.28125 -0.234375 C 5.78125 0.046875 5.160156 0.1875 4.421875 0.1875 C 3.316406 0.1875 2.507812 -0.0820312 2 -0.625 C 1.488281 -1.175781 1.234375 -2.082031 1.234375 -3.34375 L 1.234375 -10.03125 Z M 2.90625 -10.03125 "/></g></g></g><g fill="#ffffff" fill-opacity="1"><g transform="translate(751.458097, 1444.731408)"><g><path d="M 1.3125 0 L 1.3125 -7.703125 C 1.3125 -8.410156 1.296875 -9.1875 1.265625 -10.03125 L 2.84375 -10.03125 C 2.882812 -8.894531 2.90625 -8.210938 2.90625 -7.984375 L 2.953125 -7.984375 C 3.210938 -8.847656 3.515625 -9.4375 3.859375 -9.75 C 4.210938 -10.0625 4.703125 -10.21875 5.328125 -10.21875 C 5.554688 -10.21875 5.785156 -10.1875 6.015625 -10.125 L 6.015625 -8.59375 C 5.785156 -8.65625 5.488281 -8.6875 5.125 -8.6875 C 4.425781 -8.6875 3.894531 -8.390625 3.53125 -7.796875 C 3.164062 -7.203125 2.984375 -6.347656 2.984375 -5.234375 L 2.984375 0 Z M 1.3125 0 "/></g></g></g><g fill="#ffffff" fill-opacity="1"><g transform="translate(757.783944, 1444.731408)"><g/></g></g><g fill="#ffffff" fill-opacity="1"><g transform="translate(763.061673, 1444.731408)"><g><path d="M 9.765625 -5.0625 C 9.765625 -1.5625 8.535156 0.1875 6.078125 0.1875 C 4.523438 0.1875 3.484375 -0.394531 2.953125 -1.5625 L 2.90625 -1.5625 C 2.9375 -1.507812 2.953125 -0.984375 2.953125 0.015625 L 2.953125 3.9375 L 1.28125 3.9375 L 1.28125 -7.984375 C 1.28125 -9.015625 1.257812 -9.695312 1.21875 -10.03125 L 2.84375 -10.03125 C 2.84375 -10.007812 2.847656 -9.921875 2.859375 -9.765625 C 2.878906 -9.617188 2.894531 -9.382812 2.90625 -9.0625 C 2.925781 -8.75 2.9375 -8.535156 2.9375 -8.421875 L 2.96875 -8.421875 C 3.269531 -9.046875 3.660156 -9.5 4.140625 -9.78125 C 4.628906 -10.070312 5.273438 -10.21875 6.078125 -10.21875 C 7.316406 -10.21875 8.238281 -9.800781 8.84375 -8.96875 C 9.457031 -8.144531 9.765625 -6.84375 9.765625 -5.0625 Z M 8.015625 -5.03125 C 8.015625 -6.425781 7.828125 -7.421875 7.453125 -8.015625 C 7.078125 -8.617188 6.476562 -8.921875 5.65625 -8.921875 C 4.988281 -8.921875 4.46875 -8.78125 4.09375 -8.5 C 3.71875 -8.226562 3.429688 -7.796875 3.234375 -7.203125 C 3.046875 -6.609375 2.953125 -5.84375 2.953125 -4.90625 C 2.953125 -3.582031 3.160156 -2.609375 3.578125 -1.984375 C 4.003906 -1.359375 4.6875 -1.046875 5.625 -1.046875 C 6.457031 -1.046875 7.0625 -1.347656 7.4375 -1.953125 C 7.820312 -2.566406 8.015625 -3.59375 8.015625 -5.03125 Z M 8.015625 -5.03125 "/></g></g></g><g fill="#ffffff" fill-opacity="1"><g transform="translate(773.6264, 1444.731408)"><g><path d="M 3.84375 0.1875 C 2.832031 0.1875 2.070312 -0.078125 1.5625 -0.609375 C 1.0625 -1.140625 0.8125 -1.867188 0.8125 -2.796875 C 0.8125 -3.835938 1.148438 -4.632812 1.828125 -5.1875 C 2.515625 -5.75 3.617188 -6.050781 5.140625 -6.09375 L 7.390625 -6.125 L 7.390625 -6.671875 C 7.390625 -7.484375 7.21875 -8.066406 6.875 -8.421875 C 6.53125 -8.773438 5.984375 -8.953125 5.234375 -8.953125 C 4.492188 -8.953125 3.953125 -8.820312 3.609375 -8.5625 C 3.265625 -8.3125 3.0625 -7.910156 3 -7.359375 L 1.25 -7.515625 C 1.53125 -9.316406 2.875 -10.21875 5.28125 -10.21875 C 6.539062 -10.21875 7.488281 -9.925781 8.125 -9.34375 C 8.757812 -8.769531 9.078125 -7.9375 9.078125 -6.84375 L 9.078125 -2.53125 C 9.078125 -2.03125 9.140625 -1.65625 9.265625 -1.40625 C 9.398438 -1.15625 9.648438 -1.03125 10.015625 -1.03125 C 10.179688 -1.03125 10.363281 -1.050781 10.5625 -1.09375 L 10.5625 -0.0625 C 10.144531 0.0390625 9.71875 0.09375 9.28125 0.09375 C 8.65625 0.09375 8.203125 -0.0664062 7.921875 -0.390625 C 7.640625 -0.710938 7.484375 -1.222656 7.453125 -1.921875 L 7.390625 -1.921875 C 6.960938 -1.148438 6.46875 -0.601562 5.90625 -0.28125 C 5.34375 0.03125 4.65625 0.1875 3.84375 0.1875 Z M 4.21875 -1.0625 C 4.832031 -1.0625 5.375 -1.203125 5.84375 -1.484375 C 6.320312 -1.765625 6.695312 -2.144531 6.96875 -2.625 C 7.25 -3.113281 7.390625 -3.613281 7.390625 -4.125 L 7.390625 -4.953125 L 5.5625 -4.921875 C 4.78125 -4.910156 4.1875 -4.828125 3.78125 -4.671875 C 3.375 -4.523438 3.0625 -4.296875 2.84375 -3.984375 C 2.632812 -3.679688 2.53125 -3.28125 2.53125 -2.78125 C 2.53125 -2.226562 2.675781 -1.800781 2.96875 -1.5 C 3.257812 -1.207031 3.675781 -1.0625 4.21875 -1.0625 Z M 4.21875 -1.0625 "/></g></g></g><g fill="#ffffff" fill-opacity="1"><g transform="translate(784.191126, 1444.731408)"><g><path d="M 1.3125 0 L 1.3125 -7.703125 C 1.3125 -8.410156 1.296875 -9.1875 1.265625 -10.03125 L 2.84375 -10.03125 C 2.882812 -8.894531 2.90625 -8.210938 2.90625 -7.984375 L 2.953125 -7.984375 C 3.210938 -8.847656 3.515625 -9.4375 3.859375 -9.75 C 4.210938 -10.0625 4.703125 -10.21875 5.328125 -10.21875 C 5.554688 -10.21875 5.785156 -10.1875 6.015625 -10.125 L 6.015625 -8.59375 C 5.785156 -8.65625 5.488281 -8.6875 5.125 -8.6875 C 4.425781 -8.6875 3.894531 -8.390625 3.53125 -7.796875 C 3.164062 -7.203125 2.984375 -6.347656 2.984375 -5.234375 L 2.984375 0 Z M 1.3125 0 "/></g></g></g><g fill="#ffffff" fill-opacity="1"><g transform="translate(790.516974, 1444.731408)"><g><path d="M 3.84375 0.1875 C 2.832031 0.1875 2.070312 -0.078125 1.5625 -0.609375 C 1.0625 -1.140625 0.8125 -1.867188 0.8125 -2.796875 C 0.8125 -3.835938 1.148438 -4.632812 1.828125 -5.1875 C 2.515625 -5.75 3.617188 -6.050781 5.140625 -6.09375 L 7.390625 -6.125 L 7.390625 -6.671875 C 7.390625 -7.484375 7.21875 -8.066406 6.875 -8.421875 C 6.53125 -8.773438 5.984375 -8.953125 5.234375 -8.953125 C 4.492188 -8.953125 3.953125 -8.820312 3.609375 -8.5625 C 3.265625 -8.3125 3.0625 -7.910156 3 -7.359375 L 1.25 -7.515625 C 1.53125 -9.316406 2.875 -10.21875 5.28125 -10.21875 C 6.539062 -10.21875 7.488281 -9.925781 8.125 -9.34375 C 8.757812 -8.769531 9.078125 -7.9375 9.078125 -6.84375 L 9.078125 -2.53125 C 9.078125 -2.03125 9.140625 -1.65625 9.265625 -1.40625 C 9.398438 -1.15625 9.648438 -1.03125 10.015625 -1.03125 C 10.179688 -1.03125 10.363281 -1.050781 10.5625 -1.09375 L 10.5625 -0.0625 C 10.144531 0.0390625 9.71875 0.09375 9.28125 0.09375 C 8.65625 0.09375 8.203125 -0.0664062 7.921875 -0.390625 C 7.640625 -0.710938 7.484375 -1.222656 7.453125 -1.921875 L 7.390625 -1.921875 C 6.960938 -1.148438 6.46875 -0.601562 5.90625 -0.28125 C 5.34375 0.03125 4.65625 0.1875 3.84375 0.1875 Z M 4.21875 -1.0625 C 4.832031 -1.0625 5.375 -1.203125 5.84375 -1.484375 C 6.320312 -1.765625 6.695312 -2.144531 6.96875 -2.625 C 7.25 -3.113281 7.390625 -3.613281 7.390625 -4.125 L 7.390625 -4.953125 L 5.5625 -4.921875 C 4.78125 -4.910156 4.1875 -4.828125 3.78125 -4.671875 C 3.375 -4.523438 3.0625 -4.296875 2.84375 -3.984375 C 2.632812 -3.679688 2.53125 -3.28125 2.53125 -2.78125 C 2.53125 -2.226562 2.675781 -1.800781 2.96875 -1.5 C 3.257812 -1.207031 3.675781 -1.0625 4.21875 -1.0625 Z M 4.21875 -1.0625 "/></g></g></g><g fill="#ffffff" fill-opacity="1"><g transform="translate(801.0817, 1444.731408)"><g><path d="M 5.078125 3.9375 C 3.984375 3.9375 3.113281 3.722656 2.46875 3.296875 C 1.820312 2.867188 1.40625 2.257812 1.21875 1.46875 L 2.890625 1.21875 C 3.003906 1.6875 3.25 2.046875 3.625 2.296875 C 4.007812 2.546875 4.507812 2.671875 5.125 2.671875 C 6.789062 2.671875 7.625 1.695312 7.625 -0.25 L 7.625 -1.859375 L 7.609375 -1.859375 C 7.296875 -1.222656 6.863281 -0.738281 6.3125 -0.40625 C 5.757812 -0.0820312 5.113281 0.078125 4.375 0.078125 C 3.144531 0.078125 2.238281 -0.328125 1.65625 -1.140625 C 1.082031 -1.960938 0.796875 -3.25 0.796875 -5 C 0.796875 -6.769531 1.101562 -8.078125 1.71875 -8.921875 C 2.34375 -9.773438 3.289062 -10.203125 4.5625 -10.203125 C 5.269531 -10.203125 5.882812 -10.035156 6.40625 -9.703125 C 6.9375 -9.378906 7.34375 -8.921875 7.625 -8.328125 L 7.640625 -8.328125 C 7.640625 -8.503906 7.648438 -8.820312 7.671875 -9.28125 C 7.703125 -9.738281 7.726562 -9.988281 7.75 -10.03125 L 9.34375 -10.03125 C 9.300781 -9.695312 9.28125 -9.003906 9.28125 -7.953125 L 9.28125 -0.28125 C 9.28125 2.53125 7.878906 3.9375 5.078125 3.9375 Z M 7.625 -5.015625 C 7.625 -5.835938 7.507812 -6.539062 7.28125 -7.125 C 7.0625 -7.71875 6.75 -8.171875 6.34375 -8.484375 C 5.945312 -8.796875 5.488281 -8.953125 4.96875 -8.953125 C 4.113281 -8.953125 3.492188 -8.640625 3.109375 -8.015625 C 2.722656 -7.398438 2.53125 -6.398438 2.53125 -5.015625 C 2.53125 -3.640625 2.710938 -2.648438 3.078125 -2.046875 C 3.441406 -1.453125 4.0625 -1.15625 4.9375 -1.15625 C 5.46875 -1.15625 5.9375 -1.3125 6.34375 -1.625 C 6.75 -1.9375 7.0625 -2.378906 7.28125 -2.953125 C 7.507812 -3.535156 7.625 -4.222656 7.625 -5.015625 Z M 7.625 -5.015625 "/></g></g></g><g fill="#ffffff" fill-opacity="1"><g transform="translate(811.646427, 1444.731408)"><g><path d="M 1.3125 0 L 1.3125 -7.703125 C 1.3125 -8.410156 1.296875 -9.1875 1.265625 -10.03125 L 2.84375 -10.03125 C 2.882812 -8.894531 2.90625 -8.210938 2.90625 -7.984375 L 2.953125 -7.984375 C 3.210938 -8.847656 3.515625 -9.4375 3.859375 -9.75 C 4.210938 -10.0625 4.703125 -10.21875 5.328125 -10.21875 C 5.554688 -10.21875 5.785156 -10.1875 6.015625 -10.125 L 6.015625 -8.59375 C 5.785156 -8.65625 5.488281 -8.6875 5.125 -8.6875 C 4.425781 -8.6875 3.894531 -8.390625 3.53125 -7.796875 C 3.164062 -7.203125 2.984375 -6.347656 2.984375 -5.234375 L 2.984375 0 Z M 1.3125 0 "/></g></g></g><g fill="#ffffff" fill-opacity="1"><g transform="translate(817.972274, 1444.731408)"><g><path d="M 3.84375 0.1875 C 2.832031 0.1875 2.070312 -0.078125 1.5625 -0.609375 C 1.0625 -1.140625 0.8125 -1.867188 0.8125 -2.796875 C 0.8125 -3.835938 1.148438 -4.632812 1.828125 -5.1875 C 2.515625 -5.75 3.617188 -6.050781 5.140625 -6.09375 L 7.390625 -6.125 L 7.390625 -6.671875 C 7.390625 -7.484375 7.21875 -8.066406 6.875 -8.421875 C 6.53125 -8.773438 5.984375 -8.953125 5.234375 -8.953125 C 4.492188 -8.953125 3.953125 -8.820312 3.609375 -8.5625 C 3.265625 -8.3125 3.0625 -7.910156 3 -7.359375 L 1.25 -7.515625 C 1.53125 -9.316406 2.875 -10.21875 5.28125 -10.21875 C 6.539062 -10.21875 7.488281 -9.925781 8.125 -9.34375 C 8.757812 -8.769531 9.078125 -7.9375 9.078125 -6.84375 L 9.078125 -2.53125 C 9.078125 -2.03125 9.140625 -1.65625 9.265625 -1.40625 C 9.398438 -1.15625 9.648438 -1.03125 10.015625 -1.03125 C 10.179688 -1.03125 10.363281 -1.050781 10.5625 -1.09375 L 10.5625 -0.0625 C 10.144531 0.0390625 9.71875 0.09375 9.28125 0.09375 C 8.65625 0.09375 8.203125 -0.0664062 7.921875 -0.390625 C 7.640625 -0.710938 7.484375 -1.222656 7.453125 -1.921875 L 7.390625 -1.921875 C 6.960938 -1.148438 6.46875 -0.601562 5.90625 -0.28125 C 5.34375 0.03125 4.65625 0.1875 3.84375 0.1875 Z M 4.21875 -1.0625 C 4.832031 -1.0625 5.375 -1.203125 5.84375 -1.484375 C 6.320312 -1.765625 6.695312 -2.144531 6.96875 -2.625 C 7.25 -3.113281 7.390625 -3.613281 7.390625 -4.125 L 7.390625 -4.953125 L 5.5625 -4.921875 C 4.78125 -4.910156 4.1875 -4.828125 3.78125 -4.671875 C 3.375 -4.523438 3.0625 -4.296875 2.84375 -3.984375 C 2.632812 -3.679688 2.53125 -3.28125 2.53125 -2.78125 C 2.53125 -2.226562 2.675781 -1.800781 2.96875 -1.5 C 3.257812 -1.207031 3.675781 -1.0625 4.21875 -1.0625 Z M 4.21875 -1.0625 "/></g></g></g><g fill="#ffffff" fill-opacity="1"><g transform="translate(828.537001, 1444.731408)"><g><path d="M 9.765625 -5.0625 C 9.765625 -1.5625 8.535156 0.1875 6.078125 0.1875 C 4.523438 0.1875 3.484375 -0.394531 2.953125 -1.5625 L 2.90625 -1.5625 C 2.9375 -1.507812 2.953125 -0.984375 2.953125 0.015625 L 2.953125 3.9375 L 1.28125 3.9375 L 1.28125 -7.984375 C 1.28125 -9.015625 1.257812 -9.695312 1.21875 -10.03125 L 2.84375 -10.03125 C 2.84375 -10.007812 2.847656 -9.921875 2.859375 -9.765625 C 2.878906 -9.617188 2.894531 -9.382812 2.90625 -9.0625 C 2.925781 -8.75 2.9375 -8.535156 2.9375 -8.421875 L 2.96875 -8.421875 C 3.269531 -9.046875 3.660156 -9.5 4.140625 -9.78125 C 4.628906 -10.070312 5.273438 -10.21875 6.078125 -10.21875 C 7.316406 -10.21875 8.238281 -9.800781 8.84375 -8.96875 C 9.457031 -8.144531 9.765625 -6.84375 9.765625 -5.0625 Z M 8.015625 -5.03125 C 8.015625 -6.425781 7.828125 -7.421875 7.453125 -8.015625 C 7.078125 -8.617188 6.476562 -8.921875 5.65625 -8.921875 C 4.988281 -8.921875 4.46875 -8.78125 4.09375 -8.5 C 3.71875 -8.226562 3.429688 -7.796875 3.234375 -7.203125 C 3.046875 -6.609375 2.953125 -5.84375 2.953125 -4.90625 C 2.953125 -3.582031 3.160156 -2.609375 3.578125 -1.984375 C 4.003906 -1.359375 4.6875 -1.046875 5.625 -1.046875 C 6.457031 -1.046875 7.0625 -1.347656 7.4375 -1.953125 C 7.820312 -2.566406 8.015625 -3.59375 8.015625 -5.03125 Z M 8.015625 -5.03125 "/></g></g></g><g fill="#ffffff" fill-opacity="1"><g transform="translate(839.101728, 1444.731408)"><g><path d="M 2.9375 -8.328125 C 3.300781 -8.984375 3.734375 -9.460938 4.234375 -9.765625 C 4.734375 -10.066406 5.375 -10.21875 6.15625 -10.21875 C 7.238281 -10.21875 8.035156 -9.945312 8.546875 -9.40625 C 9.066406 -8.863281 9.328125 -7.957031 9.328125 -6.6875 L 9.328125 0 L 7.65625 0 L 7.65625 -6.359375 C 7.65625 -7.066406 7.585938 -7.59375 7.453125 -7.9375 C 7.328125 -8.28125 7.113281 -8.53125 6.8125 -8.6875 C 6.519531 -8.851562 6.109375 -8.9375 5.578125 -8.9375 C 4.796875 -8.9375 4.164062 -8.660156 3.6875 -8.109375 C 3.21875 -7.566406 2.984375 -6.835938 2.984375 -5.921875 L 2.984375 0 L 1.3125 0 L 1.3125 -13.765625 L 2.984375 -13.765625 L 2.984375 -10.1875 C 2.984375 -9.8125 2.972656 -9.421875 2.953125 -9.015625 C 2.929688 -8.617188 2.914062 -8.390625 2.90625 -8.328125 Z M 2.9375 -8.328125 "/></g></g></g><g fill="#ffffff" fill-opacity="1"><g transform="translate(849.666455, 1444.731408)"><g/></g></g><g fill="#ffffff" fill-opacity="1"><g transform="translate(854.944183, 1444.731408)"><g><path d="M 5.140625 -0.078125 C 4.585938 0.078125 4.023438 0.15625 3.453125 0.15625 C 2.117188 0.15625 1.453125 -0.601562 1.453125 -2.125 L 1.453125 -8.828125 L 0.28125 -8.828125 L 0.28125 -10.03125 L 1.515625 -10.03125 L 2 -12.28125 L 3.125 -12.28125 L 3.125 -10.03125 L 4.96875 -10.03125 L 4.96875 -8.828125 L 3.125 -8.828125 L 3.125 -2.484375 C 3.125 -2.003906 3.203125 -1.664062 3.359375 -1.46875 C 3.515625 -1.269531 3.785156 -1.171875 4.171875 -1.171875 C 4.398438 -1.171875 4.722656 -1.21875 5.140625 -1.3125 Z M 5.140625 -0.078125 "/></g></g></g><g fill="#ffffff" fill-opacity="1"><g transform="translate(860.221912, 1444.731408)"><g><path d="M 2.5625 -4.671875 C 2.5625 -3.515625 2.796875 -2.625 3.265625 -2 C 3.742188 -1.375 4.441406 -1.0625 5.359375 -1.0625 C 6.085938 -1.0625 6.664062 -1.207031 7.09375 -1.5 C 7.53125 -1.789062 7.828125 -2.160156 7.984375 -2.609375 L 9.453125 -2.1875 C 8.847656 -0.601562 7.484375 0.1875 5.359375 0.1875 C 3.878906 0.1875 2.75 -0.253906 1.96875 -1.140625 C 1.195312 -2.023438 0.8125 -3.335938 0.8125 -5.078125 C 0.8125 -6.742188 1.195312 -8.015625 1.96875 -8.890625 C 2.75 -9.773438 3.859375 -10.21875 5.296875 -10.21875 C 8.242188 -10.21875 9.71875 -8.441406 9.71875 -4.890625 L 9.71875 -4.671875 Z M 8 -5.953125 C 7.90625 -7.003906 7.632812 -7.769531 7.1875 -8.25 C 6.738281 -8.738281 6.097656 -8.984375 5.265625 -8.984375 C 4.453125 -8.984375 3.8125 -8.710938 3.34375 -8.171875 C 2.875 -7.628906 2.617188 -6.890625 2.578125 -5.953125 Z M 8 -5.953125 "/></g></g></g><g fill="#ffffff" fill-opacity="1"><g transform="translate(870.786639, 1444.731408)"><g><path d="M 7.4375 0 L 4.734375 -4.125 L 2.015625 0 L 0.21875 0 L 3.78125 -5.15625 L 0.375 -10.03125 L 2.234375 -10.03125 L 4.734375 -6.125 L 7.21875 -10.03125 L 9.078125 -10.03125 L 5.671875 -5.171875 L 9.296875 0 Z M 7.4375 0 "/></g></g></g><g fill="#ffffff" fill-opacity="1"><g transform="translate(880.284685, 1444.731408)"><g><path d="M 5.140625 -0.078125 C 4.585938 0.078125 4.023438 0.15625 3.453125 0.15625 C 2.117188 0.15625 1.453125 -0.601562 1.453125 -2.125 L 1.453125 -8.828125 L 0.28125 -8.828125 L 0.28125 -10.03125 L 1.515625 -10.03125 L 2 -12.28125 L 3.125 -12.28125 L 3.125 -10.03125 L 4.96875 -10.03125 L 4.96875 -8.828125 L 3.125 -8.828125 L 3.125 -2.484375 C 3.125 -2.003906 3.203125 -1.664062 3.359375 -1.46875 C 3.515625 -1.269531 3.785156 -1.171875 4.171875 -1.171875 C 4.398438 -1.171875 4.722656 -1.21875 5.140625 -1.3125 Z M 5.140625 -0.078125 "/></g></g></g></svg>